<svg width="34" height="34" viewBox="0 0 34 34" fill="none" xmlns="http://www.w3.org/2000/svg">
<path d="M20.2968 8.20329C20.182 7.77497 19.9073 7.41691 19.5233 7.19524C18.7307 6.73757 17.7133 7.01004 17.2555 7.80293L17 8.24546L16.7445 7.80286C16.2867 7.01017 15.2695 6.73757 14.4767 7.19518H14.4766C13.6839 7.65291 13.4113 8.67019 13.869 9.46302L15.083 11.5657L10.6036 19.3243H7.33789C6.42248 19.3243 5.67773 20.069 5.67773 20.9844C5.67773 21.8998 6.42248 22.6446 7.33789 22.6446H19.9458L18.0288 19.3243H14.4376L20.1309 9.46308C20.3527 9.07906 20.4116 8.63161 20.2968 8.20329Z" fill="white"/>
<path d="M26.6621 19.3242H23.3964L19.6838 12.8938L17.7668 16.2141L23.5312 26.1981C23.7529 26.5822 24.1108 26.857 24.5393 26.9718C24.6823 27.0101 24.8274 27.0291 24.9717 27.0291C25.2593 27.0291 25.5433 26.9536 25.7991 26.8059C26.5919 26.3482 26.8644 25.3308 26.4067 24.5381L25.3133 22.6445H26.6621C27.5775 22.6445 28.3223 21.8997 28.3223 20.9843C28.3223 20.0689 27.5775 19.3242 26.6621 19.3242Z" fill="white"/>
<path d="M7.91993 23.9727L7.59341 24.5382C7.13574 25.3309 7.40833 26.3483 8.20109 26.8059C8.46187 26.9565 8.74688 27.0281 9.02838 27.028C9.60253 27.028 10.1617 26.7302 10.4689 26.1983L11.7539 23.9727H7.91993Z" fill="white"/>
</svg>
