<svg width="120" height="20" viewBox="0 0 120 20" fill="none" xmlns="http://www.w3.org/2000/svg">
<path d="M0 19.6673L5.8861 1.80971H8.91474L14.8008 19.6673H12.0224L10.4554 14.491H4.2401L2.68627 19.6673H0ZM4.85899 12.3752H9.84967L9.08592 9.88689C8.78745 8.91994 8.49775 7.93968 8.21683 6.94611C7.94469 5.95254 7.67695 4.9501 7.41359 3.93879H7.29507C7.04049 4.9501 6.77274 5.95254 6.49183 6.94611C6.21969 7.93968 5.93438 8.91994 5.6359 9.88689L4.85899 12.3752Z" fill="#050066"/>
<path d="M16.8682 19.6673V6.36061H19.0146L19.2253 8.75582H19.3306C19.7783 7.90419 20.327 7.23886 20.9766 6.75981C21.635 6.2719 22.3285 6.02794 23.0572 6.02794C23.619 6.02794 24.0974 6.12109 24.4925 6.30738L24.0184 8.60945C23.799 8.53848 23.5927 8.48525 23.3995 8.44977C23.2064 8.41428 22.9738 8.39654 22.7016 8.39654C22.1661 8.39654 21.5999 8.61832 21.003 9.06188C20.406 9.49656 19.8969 10.2462 19.4755 11.3107V19.6673H16.8682Z" fill="#050066"/>
<path d="M30.9185 20C29.4612 20 28.4385 19.5742 27.8503 18.7226C27.2709 17.8709 26.9812 16.7576 26.9812 15.3826V8.48969H25.0587V6.50699L27.0997 6.36061L27.4158 2.67465H29.6017V6.36061H33.0649V8.48969H29.6017V15.4092C29.6017 16.2076 29.7509 16.8197 30.0494 17.2455C30.3566 17.6625 30.8614 17.8709 31.5637 17.8709C31.7832 17.8709 32.0246 17.8354 32.2879 17.7645C32.5513 17.6935 32.7839 17.6181 32.9858 17.5383L33.4731 19.5077C33.1044 19.623 32.7005 19.7339 32.2616 19.8403C31.8314 19.9468 31.3837 20 30.9185 20Z" fill="#050066"/>
<path d="M37.2918 3.79241C36.8002 3.79241 36.392 3.64604 36.0672 3.35329C35.7423 3.06055 35.5799 2.67909 35.5799 2.20892C35.5799 1.72987 35.7423 1.34398 36.0672 1.05123C36.392 0.758483 36.8002 0.612109 37.2918 0.612109C37.7658 0.612109 38.1653 0.758483 38.4901 1.05123C38.8237 1.34398 38.9905 1.72987 38.9905 2.20892C38.9905 2.67909 38.8237 3.06055 38.4901 3.35329C38.1653 3.64604 37.7658 3.79241 37.2918 3.79241ZM35.9618 19.6673V6.36061H38.5691V19.6673H35.9618Z" fill="#050066"/>
<path d="M43.2305 19.6673V8.48969H41.4397V6.50699L43.2305 6.37392V4.5509C43.2305 3.17587 43.5554 2.07585 44.205 1.25083C44.8546 0.416944 45.8861 0 47.2995 0C47.7384 0 48.1554 0.0487913 48.5504 0.146374C48.9542 0.235085 49.3054 0.337104 49.6039 0.452428L49.064 2.43513C48.546 2.23109 48.0588 2.12908 47.6023 2.12908C46.426 2.12908 45.8378 2.92748 45.8378 4.52428V6.36061H48.5241V8.48969H45.8378V19.6673H43.2305Z" fill="#050066"/>
<path d="M54.3575 20C53.1724 20 52.2111 19.6496 51.4737 18.9488C50.7363 18.2479 50.3676 17.3076 50.3676 16.1277C50.3676 14.6906 50.9953 13.5551 52.2506 12.7212C53.506 11.8873 55.5251 11.3994 58.3079 11.2575C58.3079 10.2905 58.1236 9.53648 57.7549 8.99534C57.3949 8.4542 56.7146 8.18363 55.7138 8.18363C54.994 8.18363 54.3004 8.29896 53.6333 8.52961C52.9749 8.75139 52.3735 9.0397 51.8293 9.39454L50.8285 7.59814C51.4869 7.18119 52.277 6.81748 53.1987 6.50699C54.1293 6.18762 55.1213 6.02794 56.1747 6.02794C57.8251 6.02794 59.0278 6.51142 59.7827 7.47838C60.5377 8.44533 60.9152 9.82923 60.9152 11.6301V19.6673H58.7688L58.5449 18.1371H58.4791C57.8646 18.6516 57.2457 19.0907 56.6224 19.4544C55.9991 19.8181 55.2442 20 54.3575 20ZM55.1213 17.8975C55.7094 17.8975 56.2493 17.7556 56.7409 17.4717C57.2325 17.1878 57.7549 16.7886 58.3079 16.2741V12.8942C56.9209 12.9563 55.8323 13.1337 55.0422 13.4265C54.2609 13.7192 53.7079 14.0874 53.3831 14.5309C53.067 14.9656 52.909 15.4402 52.909 15.9548C52.909 16.629 53.1109 17.1213 53.5148 17.4318C53.9274 17.7423 54.4629 17.8975 55.1213 17.8975Z" fill="#050066"/>
<path d="M70.2118 20C69.0354 20 67.9776 19.7339 67.0383 19.2016C66.099 18.6605 65.3572 17.8709 64.8129 16.833C64.2686 15.7951 63.9965 14.5176 63.9965 13.0007C63.9965 11.466 64.2906 10.1841 64.8787 9.15502C65.4757 8.1171 66.2614 7.33644 67.2358 6.81304C68.2103 6.28964 69.2725 6.02794 70.4225 6.02794C71.274 6.02794 72.0246 6.17875 72.6742 6.48037C73.3238 6.77312 73.8681 7.13684 74.307 7.57152L73.0429 9.24817C72.6654 8.91994 72.2704 8.66267 71.8578 8.47638C71.454 8.29009 71.015 8.19694 70.541 8.19694C69.4085 8.19694 68.4824 8.62275 67.7625 9.47438C67.0427 10.326 66.6828 11.5014 66.6828 13.0007C66.6828 14.491 67.0295 15.6664 67.723 16.5269C68.4253 17.3874 69.3383 17.8177 70.462 17.8177C71.0589 17.8177 71.5944 17.7112 72.0685 17.4983C72.5425 17.2854 72.9683 17.0104 73.3458 16.6733L74.465 18.3899C73.8593 18.931 73.1921 19.3347 72.4635 19.6008C71.7349 19.8669 70.9843 20 70.2118 20Z" fill="#050066"/>
<path d="M81.6679 20C80.2107 20 79.188 19.5742 78.5998 18.7226C78.0204 17.8709 77.7307 16.7576 77.7307 15.3826V8.48969H75.8082V6.50699L77.8492 6.36061L78.1653 2.67465H80.3512V6.36061H83.8143V8.48969H80.3512V15.4092C80.3512 16.2076 80.5004 16.8197 80.7989 17.2455C81.1061 17.6625 81.6109 17.8709 82.3132 17.8709C82.5326 17.8709 82.7741 17.8354 83.0374 17.7645C83.3008 17.6935 83.5334 17.6181 83.7353 17.5383L84.2225 19.5077C83.8538 19.623 83.45 19.7339 83.0111 19.8403C82.5809 19.9468 82.1332 20 81.6679 20Z" fill="#050066"/>
<path d="M90.5827 20C89.143 20 88.1071 19.5564 87.475 18.6693C86.8518 17.7733 86.5401 16.4782 86.5401 14.7838V6.36061H89.1605V14.4378C89.1605 15.6177 89.3317 16.4604 89.6741 16.9661C90.0165 17.4717 90.609 17.7246 91.4518 17.7246C92.1189 17.7246 92.6852 17.5604 93.1504 17.2322C93.6157 16.904 94.1337 16.3761 94.7043 15.6487V6.36061H97.3247V19.6673H95.1651L94.9676 17.6447H94.8755C94.2785 18.3544 93.6508 18.9266 92.9924 19.3613C92.334 19.7871 91.5308 20 90.5827 20Z" fill="#050066"/>
<path d="M101.538 19.6673V6.36061H103.685L103.896 8.22355H104.001C104.563 7.62031 105.182 7.10579 105.858 6.67997C106.534 6.24529 107.271 6.02794 108.07 6.02794C109.097 6.02794 109.887 6.23642 110.44 6.65336C110.993 7.06143 111.406 7.66467 111.678 8.46307C112.345 7.74451 113.021 7.15902 113.706 6.70659C114.399 6.25416 115.154 6.02794 115.971 6.02794C117.384 6.02794 118.407 6.4715 119.039 7.35862C119.68 8.24573 120 9.53648 120 11.2309V19.6673H117.406V11.5768C117.406 10.397 117.23 9.55866 116.879 9.06188C116.528 8.55622 115.953 8.30339 115.154 8.30339C114.215 8.30339 113.192 8.9155 112.086 10.1397V19.6673H109.466V11.5369C109.466 10.3571 109.29 9.52318 108.939 9.03526C108.597 8.54735 108.022 8.30339 107.214 8.30339C106.301 8.30339 105.278 8.92881 104.146 10.1796V19.6673H101.538Z" fill="#050066"/>
</svg>
