<svg width="18" height="18" viewBox="0 0 18 18" fill="none" xmlns="http://www.w3.org/2000/svg">
<g clip-path="url(#clip0)">
<path d="M16.7394 1.26063C17.014 1.5352 17.0141 1.98042 16.7394 2.25499L16.5262 2.46821C16.7585 2.73536 16.9766 3.01517 17.18 3.30595L17.4852 3.00072C18.1717 2.31426 18.1717 1.20129 17.4852 0.514828C16.7988 -0.171632 15.6857 -0.171668 14.9993 0.514828L14.6941 0.820019C14.9849 1.02343 15.2647 1.24151 15.5318 1.47382L15.7451 1.2606C16.0197 0.986026 16.4649 0.986027 16.7394 1.26063Z" fill="#FFB83A"/>
<path d="M8.96484 3.23438C5.76629 3.23438 3.16406 5.83661 3.16406 9.03516C3.16406 12.2337 5.76629 14.8359 8.96484 14.8359C12.1634 14.8359 14.7656 12.2337 14.7656 9.03516C14.7656 5.83661 12.1634 3.23438 8.96484 3.23438ZM11.9376 6.75207L9.45162 12.7183C9.36939 12.9157 9.1767 13.0428 8.96502 13.0428C8.95373 13.0428 8.94238 13.0425 8.93095 13.0417C8.70613 13.0273 8.51537 12.8716 8.45606 12.6542L7.78961 10.2105L5.34579 9.54397C5.12842 9.4847 4.97275 9.29391 4.9583 9.06908C4.94381 8.84426 5.07375 8.63508 5.2817 8.54842L11.2479 6.06252C11.4452 5.98032 11.6725 6.02532 11.8236 6.17643C11.9747 6.32753 12.0197 6.55481 11.9376 6.75207Z" fill="#5D58B7"/>
<path d="M8.35773 9.27218C8.53787 9.3213 8.6786 9.46206 8.72771 9.6422L9.06908 10.8939L10.4713 7.52861L7.10596 8.93082L8.35773 9.27218Z" fill="#5D58B7"/>
<path d="M15.8205 9.03516C15.8205 10.7358 15.1978 12.2936 14.1687 13.4931L15.6627 14.9871C17.0721 13.4028 17.9299 11.3174 17.9299 9.03516C17.9299 6.75288 17.0721 4.66752 15.6627 3.08324L14.1687 4.57724C15.1978 5.7767 15.8205 7.33451 15.8205 9.03516Z" fill="#FFB83A"/>
<path d="M8.96486 2.17969C10.6655 2.17969 12.2233 2.80241 13.4228 3.83147L14.9168 2.33747C13.3325 0.928055 11.2471 0.0703125 8.96486 0.0703125C6.68258 0.0703125 4.59722 0.928055 3.01294 2.33747L4.50694 3.83147C5.70644 2.80241 7.26421 2.17969 8.96486 2.17969Z" fill="#FFB83A"/>
<path d="M2.10938 9.03516C2.10938 7.33451 2.7321 5.7767 3.76116 4.57724L2.26716 3.08324C0.857742 4.66752 0 6.75288 0 9.03516C0 11.3174 0.857742 13.4028 2.26716 14.9871L3.76116 13.4931C2.7321 12.2936 2.10938 10.7358 2.10938 9.03516Z" fill="#FFB83A"/>
<path d="M8.96486 15.8906C7.26421 15.8906 5.7064 15.2679 4.50694 14.2388L3.01294 15.7328C4.59722 17.1423 6.68258 18 8.96486 18C11.2471 18 13.3325 17.1423 14.9168 15.7328L13.4228 14.2388C12.2233 15.2679 10.6655 15.8906 8.96486 15.8906Z" fill="#FFB83A"/>
</g>
<defs>
<clipPath id="clip0">
<rect width="18" height="18" fill="white"/>
</clipPath>
</defs>
</svg>
