<svg width="23" height="23" viewBox="0 0 23 23" fill="none" xmlns="http://www.w3.org/2000/svg">
<g clip-path="url(#clip0)">
<path d="M21.5 4.47978H19.8258C20.0467 4.13028 20.1924 3.73798 20.2339 3.32308C20.3667 1.99712 19.6684 0.808491 18.4795 0.281512C17.3867 -0.20288 16.1587 -0.00486457 15.2744 0.797171L13.1604 2.71309C12.7487 2.26279 12.1568 1.97978 11.5 1.97978C10.842 1.97978 10.2492 2.26369 9.8374 2.71538L7.72068 0.796946C6.83495 -0.00508914 5.60742 -0.202341 4.51514 0.281782C3.3266 0.808805 2.62815 1.99784 2.7613 3.32376C2.80295 3.73834 2.94858 4.13046 3.16937 4.47978H1.49999C0.671537 4.47978 0 5.15136 0 5.97976V8.22976C0 8.64394 0.335791 8.97978 0.750016 8.97978H22.25C22.6642 8.97978 23 8.64399 23 8.22976V5.97976C23 5.15136 22.3285 4.47978 21.5 4.47978ZM9.25 4.22979V4.47978H5.7217C4.78948 4.47978 4.05582 3.61072 4.28865 2.64014C4.3912 2.2127 4.69973 1.84834 5.09877 1.66389C5.64672 1.41062 6.25371 1.49193 6.71393 1.90849L9.25063 4.20768C9.25049 4.2151 9.25 4.22237 9.25 4.22979ZM18.7456 3.12394C18.6897 3.90347 17.9856 4.47987 17.2041 4.47987H13.75V4.22988C13.75 4.22103 13.7495 4.21227 13.7494 4.20342C14.324 3.6825 15.5706 2.55263 16.2468 1.93976C16.631 1.59148 17.1687 1.42891 17.6657 1.57715C18.3789 1.7899 18.7978 2.39643 18.7456 3.12394Z" fill="#5D58B7"/>
<path d="M1.5 10.4799V21.4799C1.5 22.3083 2.17154 22.9799 2.99999 22.9799H9.99998V10.4799H1.5Z" fill="#5D58B7"/>
<path d="M13 10.4799V22.9799H20C20.8284 22.9799 21.5 22.3083 21.5 21.4799V10.4799H13Z" fill="#5D58B7"/>
</g>
<defs>
<clipPath id="clip0">
<rect width="23" height="23" fill="white"/>
</clipPath>
</defs>
</svg>
