<svg width="36" height="36" viewBox="0 0 36 36" fill="none" xmlns="http://www.w3.org/2000/svg">
<g clip-path="url(#clip0)">
<path d="M33.6522 7.01198H31.0317C31.3774 6.46495 31.6055 5.85091 31.6705 5.20151C31.8783 3.12609 30.7853 1.26562 28.9245 0.440787C27.214 -0.317392 25.2919 -0.00745489 23.9078 1.2479L20.5989 4.24673C19.9545 3.54192 19.0281 3.09895 18 3.09895C16.9701 3.09895 16.0422 3.54333 15.3977 4.25032L12.0845 1.24755C10.6982 -0.00780639 8.77683 -0.316549 7.06718 0.441209C5.20685 1.26612 4.11363 3.12722 4.32204 5.20256C4.38722 5.85147 4.61517 6.46523 4.96076 7.01198H2.3478C1.0511 7.01198 0 8.06316 0 9.35979V12.8815C0 13.5298 0.525586 14.0555 1.17394 14.0555H34.8261C35.4744 14.0555 36.0001 13.5299 36.0001 12.8815V9.35979C36 8.06316 34.9489 7.01198 33.6522 7.01198ZM14.4783 6.62069V7.01198H8.9557C7.49658 7.01198 6.34823 5.65172 6.71266 4.13254C6.87319 3.46352 7.35609 2.89322 7.98068 2.60451C8.83835 2.20809 9.78841 2.33536 10.5088 2.98737L14.4792 6.5861C14.479 6.5977 14.4783 6.60909 14.4783 6.62069ZM29.341 4.88981C29.2535 6.10994 28.1514 7.01212 26.9281 7.01212H21.5217V6.62083C21.5217 6.60698 21.5209 6.59327 21.5208 6.57942C22.4202 5.76408 24.3714 3.99558 25.4297 3.0363C26.0312 2.49117 26.8727 2.23671 27.6507 2.46874C28.767 2.80174 29.4226 3.7511 29.341 4.88981Z" fill="#FFB83A"/>
<path d="M2.34778 16.4033V33.6207C2.34778 34.9174 3.39888 35.9685 4.69558 35.9685H15.6521V16.4033H2.34778Z" fill="#FFB83A"/>
<path d="M20.3478 16.4033V35.9685H31.3043C32.601 35.9685 33.6521 34.9174 33.6521 33.6207V16.4033H20.3478Z" fill="#FFB83A"/>
</g>
<defs>
<clipPath id="clip0">
<rect width="36" height="36" fill="white"/>
</clipPath>
</defs>
</svg>
