<svg width="16" height="16" viewBox="0 0 16 16" fill="none" xmlns="http://www.w3.org/2000/svg">
<g clip-path="url(#clip0)">
<path d="M3.49217 0.255884C2.8662 -0.0900969 2.13124 -0.0820974 1.50928 0.260883L8.79886 6.9855L11.2477 4.53664L3.49217 0.255884Z" fill="white"/>
<path d="M0.780472 0.94873C0.602483 1.23971 0.500488 1.5727 0.500488 1.92568V14.071C0.500488 14.413 0.593483 14.739 0.761473 15.0239L8.09206 7.69335L0.780472 0.94873Z" fill="white"/>
<path d="M14.4947 6.32848L12.1588 5.03955L9.53394 7.6634L12.7508 10.6302L14.4957 9.66729C15.1236 9.31931 15.4996 8.69534 15.4996 7.99738C15.4986 7.29942 15.1236 6.67546 14.4947 6.32848Z" fill="white"/>
<path d="M8.8269 8.37134L1.47632 15.7219C1.7953 15.9039 2.14528 15.9999 2.49726 15.9999C2.83724 15.9999 3.17922 15.9139 3.4922 15.7409L11.8287 11.1402L8.8269 8.37134Z" fill="white"/>
</g>
<defs>
<clipPath id="clip0">
<rect width="16" height="16" fill="white"/>
</clipPath>
</defs>
</svg>
