<svg width="36" height="36" viewBox="0 0 36 36" fill="none" xmlns="http://www.w3.org/2000/svg">
<path d="M30.8033 19.2178H28.0192C28.3029 19.9947 28.458 20.8332 28.458 21.7071V32.2294C28.458 32.5938 28.3946 32.9435 28.2792 33.2688H32.8819C34.6013 33.2688 36 31.87 36 30.1507V24.4145C36.0001 21.5491 33.6688 19.2178 30.8033 19.2178Z" fill="#FFB83A"/>
<path d="M7.54208 21.7072C7.54208 20.8333 7.69712 19.9949 7.98091 19.2179H5.19681C2.33129 19.2179 0 21.5492 0 24.4147V30.1509C0 31.8702 1.39873 33.269 3.11808 33.269H7.72089C7.60551 32.9436 7.54208 32.5939 7.54208 32.2295V21.7072Z" fill="#FFB83A"/>
<path d="M21.1825 16.5105H14.8177C11.9521 16.5105 9.62085 18.8418 9.62085 21.7073V32.2296C9.62085 32.8036 10.0862 33.269 10.6602 33.269H25.3399C25.914 33.269 26.3793 32.8036 26.3793 32.2296V21.7073C26.3793 18.8418 24.048 16.5105 21.1825 16.5105Z" fill="#FFB83A"/>
<path d="M18.0001 2.73096C14.5539 2.73096 11.7502 5.5346 11.7502 8.98084C11.7502 11.3184 13.0404 13.3599 14.9457 14.4318C15.8495 14.9401 16.8914 15.2306 18.0001 15.2306C19.1087 15.2306 20.1506 14.9401 21.0544 14.4318C22.9598 13.3599 24.2499 11.3183 24.2499 8.98084C24.2499 5.53467 21.4462 2.73096 18.0001 2.73096Z" fill="#FFB83A"/>
<path d="M7.02547 8.55627C4.44816 8.55627 2.35144 10.653 2.35144 13.2303C2.35144 15.8076 4.44816 17.9043 7.02547 17.9043C7.67924 17.9043 8.30179 17.7689 8.86731 17.5255C9.84508 17.1045 10.6513 16.3594 11.1502 15.426C11.5003 14.7709 11.6995 14.0235 11.6995 13.2303C11.6995 10.6531 9.60278 8.55627 7.02547 8.55627Z" fill="#FFB83A"/>
<path d="M28.9746 8.55627C26.3973 8.55627 24.3005 10.653 24.3005 13.2303C24.3005 14.0236 24.4997 14.7709 24.8499 15.426C25.3488 16.3594 26.155 17.1046 27.1327 17.5255C27.6983 17.7689 28.3208 17.9043 28.9746 17.9043C31.5519 17.9043 33.6486 15.8076 33.6486 13.2303C33.6486 10.653 31.5519 8.55627 28.9746 8.55627Z" fill="#FFB83A"/>
</svg>
