<svg width="422" height="253" viewBox="0 0 422 253" fill="none" xmlns="http://www.w3.org/2000/svg">
<path d="M91.056 185.088C63.6483 187.807 3.0675 194.031 3.05078 202.368C3.03609 209.727 50.226 214.272 50.0261 223.582C49.8812 230.335 24.97 232.238 25.0231 237.22C25.1153 245.88 103.049 250.126 130.339 251.616C142.589 252.285 159.291 253.028 180.707 252.278C210.856 251.221 225.931 250.692 236.338 245.598C245.395 241.165 252.87 235.087 265.204 235.326C274.641 235.509 281.468 239.286 284.145 240.63C316.035 256.648 388.751 243.983 392.492 223.961C394.178 214.936 380.898 209.512 383.184 197.194C385.537 184.513 401.287 181.229 400.02 175.828C400.02 175.828 398.617 169.851 341.171 168.955C228.792 174.222 190.273 175.245 91.056 185.088Z" fill="#EBEFF2"/>
<path d="M55.5824 210.45C45.4666 214.129 45.4251 216.284 45.4802 216.763C45.8769 220.219 61.161 222.531 73.7664 222.067C79.7074 221.848 85.4618 220.998 85.6365 221.815C85.8755 222.933 75.0839 224.487 75.0292 227.118C74.939 231.456 103.936 242.634 122.762 233.432C126.593 231.559 131.605 228.06 138.421 228.886C144.155 229.581 146.49 232.771 151.048 231.664C155.379 230.612 156.269 227.005 160.14 223.835C166.671 218.487 175.506 219.443 180.85 219.794C201.551 221.154 233.985 217.654 267.982 213.985C292.572 211.332 304.868 210.005 319.503 204.136C334.699 198.042 338.264 193.189 351.578 191.76C361.109 190.738 369.685 192.109 380.116 186.457C381.256 185.839 390.549 180.804 389.713 177.365C388.411 172.006 363.327 173.824 355.618 174.334C339.104 175.427 112.659 189.686 55.5824 210.45Z" fill="#D8DEE8"/>
<path d="M302.865 180.701C298.375 170.788 293.236 155.467 295.363 137.606C297.805 117.097 307.594 111.984 314.451 89.5996C324.239 57.6472 307.005 37.1442 319.557 26.3398C325.679 21.0709 336.081 19.937 342.991 23.8084C362.706 34.8538 363.857 92.169 337.231 117.477C325.189 128.922 313.602 128.979 305.157 143.014C297.695 155.417 300.019 170.456 302.865 180.701Z" fill="#0D00FF" fill-opacity="0.5"/>
<g opacity="0.5">
<path opacity="0.5" d="M298.016 155.062L297.641 155.009C298.274 150.546 299.296 146.117 300.679 141.844C303.859 132.017 307.925 126.37 313.073 119.22C316.416 114.577 320.204 109.315 324.435 101.905C332.348 88.0457 334.746 83.2218 336.538 75.6892C340.087 60.7726 337.903 47.9819 336.286 41.6851C333.991 32.7527 330.008 24.4478 324.448 17.0009L324.751 16.7741C330.342 24.2608 334.346 32.6102 336.653 41.5907C338.279 47.9213 340.475 60.7809 336.906 75.7768C335.103 83.3558 332.698 88.1965 324.764 102.093C320.524 109.52 316.728 114.791 313.38 119.441C308.252 126.564 304.201 132.19 301.039 141.961C299.663 146.213 298.646 150.621 298.016 155.062Z" fill="white"/>
<path opacity="0.5" d="M338.263 65.346L338.224 65.0367C336.889 54.4907 329.39 48.3842 323.334 45.1184C316.758 41.5721 310.422 40.5153 310.358 40.505L310.419 40.131C310.483 40.1413 316.882 41.2086 323.514 44.785C329.587 48.0601 337.094 54.1602 338.558 64.6719C339.634 63.8657 343.928 60.4495 347.517 54.7587C351.312 48.7416 355.073 38.8734 351.441 26.0314L351.805 25.9282C355.477 38.9112 351.67 48.8893 347.829 54.9737C343.67 61.563 338.571 65.1335 338.52 65.1687L338.263 65.346Z" fill="white"/>
<path opacity="0.5" d="M336.634 99.6544C330.944 99.6544 326.828 98.3266 326.743 98.2981L326.592 98.2478L326.615 98.0906C328.209 87.4203 325.02 80.0333 322.063 75.7154C318.857 71.0333 315.226 68.8459 315.189 68.8244L315.383 68.4986C315.529 68.5857 330.002 77.4236 327.014 97.9859C328.765 98.5132 345.236 103.042 357.4 91.2556L357.664 91.5274C350.903 98.0777 342.834 99.6544 336.634 99.6544Z" fill="white"/>
<path opacity="0.5" d="M326.866 120.858C318.86 120.858 314.438 117.733 314.369 117.682L314.259 117.602L314.3 117.473C317.755 106.436 309.458 89.8754 309.373 89.7092L309.711 89.5378C309.796 89.7044 318.095 106.267 314.703 117.451C315.903 118.238 326.737 124.725 344.651 115.883L344.818 116.222C337.673 119.75 331.634 120.858 326.866 120.858Z" fill="white"/>
</g>
<path d="M292.972 177.034C290.641 168.678 288.388 155.477 294.023 142.841C303.854 120.795 326.625 125.28 345.293 100.777C360.349 81.0153 353.478 67.6735 371.025 53.7207C373.962 51.3852 389.433 38.6081 402.542 43.8674C409.929 46.8308 413.289 54.1973 413.92 55.5802C423.453 76.4808 405.058 112.824 377.961 131.476C362.393 142.192 356.741 139.857 328.77 153.421C312.333 161.392 300.349 170.658 292.972 177.034Z" fill="#0D00FF" fill-opacity="0.5"/>
<g opacity="0.7">
<path opacity="0.7" d="M291.63 187.541L291.253 187.505C293.279 166.697 299.83 152.152 310.724 144.275C316.059 140.417 320.529 139.413 325.262 138.35C330.346 137.209 335.602 136.028 342.163 131.018C348.539 126.15 350.555 121.91 353.107 116.541C355.404 111.707 358.264 105.69 365.242 97.3314C371.357 90.0051 375.997 86.3836 380.09 83.1883C384.52 79.7304 388.019 76.999 391.743 70.8364C397.828 60.7689 400.241 48.4444 398.915 34.2052L399.292 34.1701C400.625 48.4918 398.195 60.894 392.067 71.0326C388.307 77.2547 384.784 80.0049 380.323 83.487C376.245 86.6707 371.622 90.2792 365.532 97.5743C358.585 105.896 355.737 111.889 353.449 116.704C350.875 122.119 348.842 126.396 342.393 131.32C335.765 136.38 330.468 137.57 325.345 138.72C320.651 139.774 316.218 140.77 310.946 144.582C300.144 152.393 293.645 166.847 291.63 187.541Z" fill="white"/>
<path opacity="0.7" d="M378.189 84.9432L378.242 84.6952C378.305 84.4015 384.363 55.198 372.711 44.6719L372.964 44.3907C384.199 54.539 379.231 81.6363 378.662 84.5257C394.148 83.2522 404.997 76.1583 411.381 70.4142C418.335 64.1572 421.634 58.1183 421.667 58.058L422 58.2379C421.967 58.2987 418.637 64.3954 411.634 70.6957C405.172 76.5102 394.167 83.6984 378.442 84.9235L378.189 84.9432Z" fill="white"/>
<path opacity="0.7" d="M376.449 109.093C365.976 109.093 358.686 106.783 358.611 106.76L358.456 106.71L358.482 106.549C360.947 91.3948 355.087 70.8484 355.028 70.6425L355.392 70.5374C355.451 70.7433 361.294 91.2255 358.883 106.446C360.021 106.787 367.305 108.826 377.327 108.709C387.36 108.584 402.275 106.197 416.352 95.5342L416.581 95.8361C402.417 106.565 387.412 108.964 377.318 109.088C377.026 109.091 376.736 109.093 376.449 109.093Z" fill="white"/>
<path opacity="0.7" d="M364.32 144.998C342.834 144.998 329.921 137.673 329.77 137.585L329.597 137.485L329.706 137.317C339.39 122.476 332.593 100.421 332.524 100.199L332.885 100.086C332.955 100.307 339.755 122.363 330.134 137.353C332.056 138.392 349.639 147.356 377.009 143.783L377.058 144.159C372.539 144.749 368.282 144.998 364.32 144.998Z" fill="white"/>
</g>
<path d="M291.89 169.838C296.253 165.923 303.463 160.16 313.48 155.334C331.297 146.752 340.21 149.705 347.203 141.019C354.442 132.028 348.315 124.612 357.053 114.5C357.788 113.65 367.197 103.045 377.024 105.545C383.898 107.295 387.285 114.52 388.875 117.91C395.044 131.067 394.583 152.185 381.119 164.04C368.355 175.279 350.351 172.539 344.631 171.63C334.596 170.035 331.873 166.487 321.703 165.161C309.335 163.549 298.739 166.89 291.89 169.838Z" fill="#0D00FF" fill-opacity="0.5"/>
<path d="M183.896 211.318L188.324 213.555C192.287 215.558 196.97 212.677 196.97 208.237V204.154L183.896 211.318Z" fill="#B5B9BE"/>
<path d="M294.32 62.5772C293.456 62.5772 292.718 61.9204 292.634 61.043C291.15 45.4668 286.072 30.6676 278.335 19.3707C271.481 9.36274 263.321 3.39068 256.503 3.39068C256.496 3.39068 256.488 3.39068 256.481 3.39068C231.649 3.43898 226.454 60.451 226.405 61.0272C226.324 61.9601 225.507 62.6509 224.57 62.571C223.638 62.4907 222.946 61.6695 223.027 60.737C223.239 58.259 228.556 0.054552 256.474 0C256.484 0 256.494 0 256.504 0C264.559 0 273.534 6.35982 281.132 17.4548C289.188 29.2177 294.472 44.5831 296.01 60.7208C296.099 61.653 295.415 62.4806 294.483 62.5697C294.428 62.5746 294.374 62.5772 294.32 62.5772Z" fill="url(#paint0_linear)"/>
<path d="M190.869 179.913L223.558 196.462L243.364 135.684L210.729 54.2029L201.476 56.4718L187.435 173.494C187.117 176.143 188.489 178.708 190.869 179.913Z" fill="url(#paint1_linear)"/>
<path opacity="0.3" d="M243.364 135.684L210.729 54.2027L205.271 55.5409C204.514 66.4199 204.847 75.3738 205.361 81.8929C207.548 109.635 214.814 117.355 211.294 136.708C208.368 152.8 201.977 154.984 202.535 165.811C203.144 177.602 211.368 187.477 221.146 195.241L223.558 196.462L243.364 135.684Z" fill="url(#paint2_linear)"/>
<path d="M210.729 54.2027L333.829 60.4422L372.949 184.425L223.558 196.462L210.729 54.2027Z" fill="url(#paint3_linear)"/>
<g opacity="0.3">
<path opacity="0.3" d="M333.829 60.4422L269.632 57.1883C268.548 58.7742 267.113 61.3576 266.846 64.6533C265.266 84.1456 308.466 90.4562 312.337 114.383C315.284 132.599 297.152 153.617 280.974 162.981C263.929 172.847 252.379 167.851 240.851 178.804C235.786 183.617 232.702 189.635 230.867 195.873L372.949 184.425L333.829 60.4422Z" fill="url(#paint4_linear)"/>
</g>
<path d="M248.487 65.364C247.717 65.364 247.021 64.8366 246.837 64.0553C246.491 62.5785 238.483 27.6851 249.774 10.5607C253.011 5.65267 257.532 2.65616 263.213 1.65402C292.401 -3.48912 310.372 59.202 311.123 61.8732C311.376 62.7747 310.851 63.7105 309.949 63.9638C309.047 64.2178 308.112 63.6914 307.859 62.7905C307.683 62.1663 289.993 0.369012 263.802 4.99326C259.008 5.83854 255.346 8.27005 252.605 12.4268C242.109 28.3452 250.057 62.9336 250.139 63.2813C250.352 64.1927 249.787 65.1048 248.875 65.3188C248.745 65.3495 248.615 65.364 248.487 65.364Z" fill="url(#paint5_linear)"/>
<path d="M248.499 70.3576C251.115 70.3576 253.237 68.2364 253.237 65.6197C253.237 63.003 251.115 60.8817 248.499 60.8817C245.882 60.8817 243.761 63.003 243.761 65.6197C243.761 68.2364 245.882 70.3576 248.499 70.3576Z" fill="url(#paint6_linear)"/>
<path d="M310.287 69.918C312.903 69.918 315.025 67.7968 315.025 65.1801C315.025 62.5634 312.903 60.4421 310.287 60.4421C307.67 60.4421 305.549 62.5634 305.549 65.1801C305.549 67.7968 307.67 69.918 310.287 69.918Z" fill="url(#paint7_linear)"/>
<path d="M343.25 120.101L305.031 85.4044C304.226 84.673 303.072 84.4684 302.064 84.8782L281.668 93.1686C279.95 93.8673 279.357 96.0033 280.471 97.4874L313.757 141.86C314.677 143.086 316.407 143.357 317.658 142.469L342.985 124.504C344.459 123.458 344.588 121.316 343.25 120.101ZM299.546 97.6018C298.259 98.4677 296.229 97.7034 295.013 95.8949C293.797 94.0864 293.856 91.9185 295.144 91.0528C296.431 90.187 298.461 90.9512 299.677 92.7597C300.893 94.5682 300.834 96.736 299.546 97.6018Z" fill="#D8DEE8"/>
<path d="M343.25 119.628L305.031 84.9309C304.226 84.1995 303.072 83.9949 302.064 84.4046L281.668 92.6951C279.95 93.3938 279.357 95.5298 280.471 97.014L313.757 141.386C314.677 142.613 316.407 142.883 317.658 141.996L342.985 124.03C344.459 122.984 344.588 120.843 343.25 119.628ZM299.546 97.1283C298.259 97.9942 296.229 97.2299 295.013 95.4214C293.797 93.6129 293.856 91.445 295.144 90.5793C296.431 89.7135 298.461 90.4777 299.677 92.2862C300.893 94.0945 300.834 96.2625 299.546 97.1283Z" fill="#F4F7FA"/>
<path d="M291.603 88.6942C291.46 88.6942 291.322 88.6118 291.258 88.4723C289.939 85.5772 288.16 83.0765 285.97 81.0399C279.963 75.4517 272.195 74.5717 264.682 73.7209C257.186 72.8719 250.106 72.0698 245.866 66.5017C244.78 65.0758 243.097 62.494 244.026 61.2206C244.397 60.7122 245.126 60.4782 246.193 60.5246C246.402 60.5338 246.564 60.7107 246.555 60.9197C246.546 61.1288 246.367 61.2889 246.16 61.2816C245.375 61.2478 244.847 61.3804 244.638 61.6673C244.198 62.2696 244.934 64.0279 246.468 66.0425C250.513 71.3533 257.437 72.1376 264.767 72.968C272.402 73.8328 280.296 74.7269 286.487 80.485C288.75 82.5903 290.587 85.1719 291.948 88.1584C292.035 88.3487 291.951 88.5736 291.76 88.6602C291.709 88.6832 291.656 88.694 291.603 88.6942Z" fill="#26264F"/>
<path d="M294.868 94.566C294.766 94.566 294.665 94.525 294.59 94.4444C294.448 94.291 294.457 94.0515 294.61 93.9094C294.636 93.8851 297.224 91.4452 297.211 88.2025C297.204 86.2117 296.227 84.3124 294.307 82.5572C290.205 78.8064 279.301 74.4551 269.682 70.616C263.806 68.2708 258.256 66.0559 254.609 64.1451C253.783 63.7123 252.911 63.302 252.016 62.9251C251.823 62.8439 251.732 62.6217 251.813 62.429C251.895 62.2363 252.117 62.1458 252.309 62.2266C253.224 62.6118 254.116 63.0313 254.961 63.4739C258.573 65.3667 264.105 67.5745 269.962 69.912C279.642 73.7753 290.614 78.1538 294.818 81.9981C296.903 83.9039 297.963 85.9927 297.969 88.2066C297.979 91.7848 295.241 94.3575 295.125 94.4655C295.052 94.5328 294.96 94.566 294.868 94.566Z" fill="#26264F"/>
<path d="M343.25 119.628L305.031 84.9307C304.226 84.1993 303.072 83.9948 302.064 84.4044L300.248 85.1428C300.723 86.7557 301.434 88.5702 302.519 90.4226C308.164 100.061 317.426 99.6448 319.566 106.334C321.463 112.261 315.101 115.442 314.263 123.76C313.844 127.916 314.8 133.445 319.923 140.389L342.985 124.03C344.459 122.984 344.588 120.843 343.25 119.628Z" fill="white"/>
<path d="M308.954 107.818C311.048 111.041 310.615 113.715 308.947 114.798C307.191 115.939 304.668 115.084 302.79 112.192C301.004 109.443 300.909 106.539 302.879 105.26C304.866 103.97 307.246 105.187 308.954 107.818ZM304.733 110.795C305.78 112.407 306.942 113.303 307.723 112.796C308.486 112.301 308.181 111.016 307.057 109.285C306.042 107.721 304.937 106.72 304.103 107.262C303.305 107.78 303.733 109.255 304.733 110.795ZM313.276 121.152L309.55 100.927L311.005 99.9824L314.713 120.219L313.276 121.152ZM321.415 108.824C323.508 112.047 323.075 114.721 321.407 115.804C319.668 116.933 317.145 116.078 315.25 113.198C313.464 110.449 313.369 107.546 315.338 106.266C317.326 104.976 319.706 106.193 321.415 108.824ZM317.21 111.79C318.239 113.413 319.402 114.309 320.183 113.802C320.946 113.307 320.641 112.022 319.517 110.292C318.501 108.727 317.415 107.714 316.58 108.256C315.764 108.786 316.21 110.249 317.21 111.79Z" fill="#D8DEE8"/>
<path d="M314.077 132.341C313.565 132.341 313.065 132.082 312.78 131.612C312.346 130.897 312.574 129.965 313.289 129.53L331.694 118.358C332.409 117.924 333.341 118.152 333.776 118.867C334.21 119.582 333.982 120.514 333.267 120.948L314.862 132.121C314.616 132.27 314.345 132.341 314.077 132.341Z" fill="#D8DEE8"/>
<path d="M94.935 215.44C97.0267 207.128 98.8636 194.533 94.7138 180.989C89.9489 165.435 81.6454 162.843 73.1963 146.455C61.1355 123.061 71.6205 104.757 60.3787 98.1407C54.8965 94.9145 46.6753 95.4925 41.8621 99.4608C28.1293 110.783 35.2644 155.366 59.4453 171.251C70.3814 178.436 79.37 176.856 87.8808 186.552C95.4013 195.119 95.7058 207.101 94.935 215.44Z" fill="#0D00FF" fill-opacity="0.5"/>
<g opacity="0.5">
<path opacity="0.5" d="M95.0642 194.902C93.9544 191.55 92.5498 188.278 90.8887 185.178C87.0726 178.054 83.1472 174.262 78.1773 169.462C74.9305 166.326 71.2503 162.772 66.922 157.608C58.8236 147.946 56.2808 144.529 53.8192 138.903C48.9499 127.772 48.8504 117.49 49.2243 112.353C49.7548 105.064 51.6902 98.0266 54.9771 91.4365L55.316 91.6055C52.0515 98.151 50.129 105.141 49.602 112.38C49.2306 117.483 49.3296 127.694 54.1662 138.751C56.6085 144.334 59.1412 147.735 67.2122 157.364C71.5275 162.513 75.2001 166.06 78.4403 169.19C83.434 174.013 87.3782 177.822 91.2224 184.999C92.8935 188.118 94.3069 191.41 95.4235 194.782L95.0642 194.902Z" fill="white"/>
<path opacity="0.5" d="M51.3878 131.056L51.1037 130.927C50.9257 130.846 33.3181 122.603 35.2875 102.334L35.6644 102.371C33.8584 120.96 48.7267 129.294 50.9784 130.443C50.3829 114.412 69.1881 107.579 69.3793 107.512L69.5055 107.869C69.3158 107.936 50.526 114.768 51.3713 130.745L51.3878 131.056Z" fill="white"/>
<path opacity="0.5" d="M52.6204 157.834C48.691 157.834 44.2447 156.914 39.9521 154.034L40.163 153.72C51.1456 161.086 63.156 155.416 64.5849 154.694C59.4043 139.17 69.3906 130.289 69.4925 130.2L69.7405 130.487C69.6402 130.574 59.7812 139.356 64.9954 154.726L65.0465 154.877L64.907 154.953C64.8242 154.998 59.5187 157.834 52.6204 157.834Z" fill="white"/>
<path opacity="0.5" d="M63.2402 172.869C60.4032 172.869 57.1216 172.456 53.3777 171.38L53.4824 171.016C61.8208 173.412 67.7576 172.456 71.2693 171.233C74.5907 170.076 76.4286 168.469 76.8527 168.068C72.6713 159.858 76.7805 145.872 76.8228 145.731L77.1857 145.84C77.1436 145.98 73.037 159.962 77.2529 168.017L77.3157 168.138L77.2224 168.236C77.1648 168.296 72.6676 172.869 63.2402 172.869Z" fill="white"/>
</g>
<path d="M113.563 213.537C114.476 206.766 114.802 196.224 109.037 186.977C98.9789 170.844 81.7011 176.811 64.4827 159.719C50.5953 145.935 54.5095 134.782 39.3089 125.799C36.7646 124.296 23.3105 116.005 13.6542 121.528C8.21281 124.641 6.39 130.752 6.04781 131.899C0.875841 149.236 19.1651 175.594 42.3249 187.208C55.6312 193.881 59.7872 191.446 83.078 198.997C96.7637 203.433 107.117 209.363 113.563 213.537Z" fill="#0D00FF" fill-opacity="0.5"/>
<g opacity="0.5">
<path opacity="0.5" d="M115.709 221.598C111.898 205.684 105.268 195.122 96.0053 190.204C91.4872 187.806 87.9246 187.51 84.1527 187.197C80.0271 186.854 75.7612 186.5 70.0349 183.266C64.4619 180.119 62.4101 176.999 59.8125 173.049C57.5067 169.543 54.6369 165.179 48.3195 159.444C42.7811 154.416 38.7861 152.103 35.2612 150.062C31.4005 147.828 28.3513 146.062 24.7385 141.61C18.8539 134.358 15.6105 124.938 15.0986 113.613L15.477 113.596C15.9852 124.838 19.2001 134.183 25.0326 141.371C28.6014 145.769 31.624 147.519 35.4511 149.734C38.9922 151.784 43.0057 154.108 48.5739 159.163C54.9267 164.931 57.8114 169.317 60.1288 172.841C62.6985 176.748 64.7279 179.834 70.221 182.936C75.8751 186.129 80.0989 186.48 84.1837 186.819C87.9955 187.136 91.5958 187.435 96.1826 189.87C105.546 194.84 112.24 205.485 116.078 221.509L115.709 221.598Z" fill="white"/>
<path opacity="0.5" d="M34.1334 151.069C12.1408 151.069 0.123614 135.04 0 134.871L0.305627 134.647C0.432732 134.821 13.2464 151.906 36.634 150.621C35.7957 148.178 29.1311 127.79 36.7539 118.705L37.0439 118.948C29.1095 128.405 36.993 150.508 37.0737 150.731L37.16 150.969L36.9069 150.984C35.9661 151.041 35.0406 151.069 34.1334 151.069Z" fill="white"/>
<path opacity="0.5" d="M33.5452 170.146C26.3151 170.146 17.3834 168.701 8.31567 163.626L8.50065 163.295C20.6268 170.082 32.5098 170.328 40.344 169.339C48.0826 168.362 53.5013 166.022 54.447 165.593C50.9287 153.973 53.263 137.385 53.2871 137.218L53.6622 137.272C53.6379 137.439 51.295 154.095 54.8574 165.64L54.9055 165.795L54.7587 165.866C54.7018 165.894 48.958 168.631 40.4057 169.713C38.3687 169.971 36.0597 170.146 33.5452 170.146Z" fill="white"/>
<path opacity="0.5" d="M44.4046 197.045L44.4016 196.666C65.9673 196.488 78.6652 187.733 80.2133 186.603C71.1062 175.934 74.0171 158.009 74.0476 157.828L74.4212 157.892C74.3907 158.071 71.4824 175.996 80.6322 186.509L80.7634 186.66L80.6062 186.782C80.4772 186.883 67.4696 196.854 44.4046 197.045Z" fill="white"/>
</g>
<path d="M103.984 218.509C100.791 215.175 95.4717 210.218 87.8926 205.832C74.4121 198.03 67.2364 199.818 62.262 192.579C57.1128 185.087 62.3667 179.628 56.1074 171.166C55.581 170.455 48.8235 161.565 40.9573 162.943C35.4544 163.907 32.3633 169.38 30.913 171.947C25.2842 181.912 24.3877 198.525 34.2542 208.637C43.6085 218.224 57.9109 217.146 62.4576 216.773C70.434 216.118 72.7836 213.494 80.8496 213.059C90.6585 212.53 98.7808 215.786 103.984 218.509Z" fill="#0D00FF" fill-opacity="0.5"/>
<path d="M266.314 200.344C266.314 203.443 264.114 206.109 261.414 206.269L71.1981 217.888C67.5946 218.101 63.5269 215.052 63.5269 211.45V78.3323C63.5269 74.7296 67.6925 71.7004 71.296 71.8499L261.414 79.9881C264.114 80.1002 266.314 82.7271 266.314 85.8263V200.344Z" fill="#404685"/>
<path d="M269.841 200.561C269.841 203.676 267.63 206.355 264.917 206.515L72.6694 217.912C69.0484 218.126 66.0723 215.341 66.0723 211.721V77.9594C66.0723 74.3393 69.0484 71.5009 72.6694 71.651L264.917 79.6231C267.63 79.7355 269.841 82.3753 269.841 85.4896V200.561Z" fill="url(#paint8_linear)"/>
<path d="M269.841 169.203L66.0723 179.657V204.154L269.841 192.193V169.203Z" fill="url(#paint9_linear)"/>
<g opacity="0.15">
<path opacity="0.15" d="M126.211 115.884C125.981 131.086 116.473 138.986 105.888 138.945C94.3544 138.901 85.1094 130.058 85.329 115.539C85.5379 101.734 94.2348 91.8986 107.157 92.8638C119.695 93.8004 126.398 103.477 126.211 115.884ZM98.8311 115.593C98.7112 123.523 101.306 129.287 106.375 129.381C111.255 129.471 113.687 124.5 113.813 116.181C113.927 108.659 111.997 102.725 106.669 102.405C101.485 102.095 98.9459 108.012 98.8311 115.593ZM109.534 164.465L146.266 97.9589C146.969 96.6869 148.348 95.941 149.797 96.0492C152.491 96.2505 154.077 99.1674 152.782 101.538L116.456 168.026C115.832 169.168 114.657 169.9 113.358 169.957L112.952 169.975C110.051 170.104 108.13 167.006 109.534 164.465ZM172.385 145.723C172.172 159.802 164.01 167.506 154.954 167.903C145.214 168.331 137.357 160.565 137.455 147.185C137.648 134.459 145.061 125.001 156.087 125.297C166.818 125.585 172.558 134.231 172.385 145.723ZM149.055 146.647C148.844 153.969 151.052 159.178 155.382 159.051C159.553 158.929 161.64 154.232 161.756 146.538C161.861 139.581 160.313 134.186 155.759 134.131C151.234 134.076 149.161 139.649 149.055 146.647Z" fill="url(#paint10_linear)"/>
</g>
<path d="M127.985 115.176C127.755 130.378 118.247 138.278 107.662 138.237C96.1285 138.193 86.8835 129.351 87.1032 114.831C87.312 101.026 96.0089 91.1909 108.931 92.1561C121.469 93.0925 128.172 102.769 127.985 115.176ZM100.605 114.885C100.485 122.815 103.08 128.579 108.149 128.673C113.028 128.763 115.461 123.792 115.587 115.473C115.701 107.951 113.771 102.017 108.443 101.698C103.259 101.387 100.72 107.304 100.605 114.885ZM111.308 163.757L148.04 97.251C148.743 95.979 150.122 95.2331 151.571 95.3413C154.265 95.5426 155.851 98.4595 154.556 100.83L118.23 167.318C117.606 168.46 116.432 169.192 115.132 169.25L114.726 169.268C111.825 169.396 109.904 166.298 111.308 163.757ZM174.159 145.015C173.946 159.094 165.784 166.798 156.729 167.195C146.988 167.623 139.131 159.857 139.23 146.477C139.422 133.751 146.835 124.293 157.862 124.589C168.592 124.877 174.333 133.523 174.159 145.015ZM150.829 145.939C150.618 153.261 152.826 158.47 157.155 158.344C161.327 158.222 163.414 153.525 163.53 145.83C163.635 138.874 162.087 133.478 157.533 133.423C153.008 133.368 150.935 138.942 150.829 145.939Z" fill="white"/>
<path opacity="0.3" d="M264.916 79.6231L74.8833 71.7429C83.4605 97.1428 95.744 108.521 106.293 114.09C126.379 124.693 140.784 114.567 158.001 128.295C175.665 142.379 168.942 159.765 187.549 171.48C201.534 180.285 210.548 173.748 225.052 181.708C235.794 187.604 242.505 197.588 246.798 207.589L264.916 206.516C267.629 206.355 269.84 203.676 269.84 200.561V85.4896C269.84 82.3754 267.629 79.7356 264.916 79.6231Z" fill="url(#paint11_linear)"/>
<path opacity="0.3" d="M267.164 140.501L262.527 136.101L258.127 140.738L253.49 136.338L249.091 140.975L244.454 136.575L240.054 141.212L235.417 136.812L231.018 141.449L226.381 137.05L221.981 141.686L217.344 137.287L212.945 141.924L208.308 137.524L203.908 142.161L199.272 137.761L194.872 142.398L188.947 136.776C188.947 139.021 188.947 206.233 188.947 206.233C188.947 206.233 188.705 210.211 183.896 211.257L265.904 205.245C266.84 205.175 267.716 204.912 268.503 204.504C269.33 203.441 269.841 202.053 269.841 200.562V137.68L267.164 140.501Z" fill="url(#paint12_linear)"/>
<path d="M275.186 143.447L270.55 139.048L266.15 143.685L261.513 139.285L257.113 143.921L252.477 139.522L248.077 144.159L243.44 139.759L239.04 144.396L234.404 139.996L230.004 144.633L225.367 140.233L220.968 144.87L216.331 140.47L211.931 145.107L207.294 140.707L202.894 145.344L196.97 139.722C196.97 141.967 196.97 209.179 196.97 209.179C196.97 209.179 196.728 213.157 191.919 214.203L273.926 208.191C277.447 207.929 280.169 204.997 280.169 201.466V138.196L275.186 143.447Z" fill="white"/>
<path d="M270.88 174.942L260.738 175.399C260.056 175.43 259.519 175.992 259.519 176.675V181.33C259.519 182.063 260.135 182.646 260.867 182.604L271.009 182.033C271.685 181.995 272.214 181.435 272.214 180.758V176.218C272.214 175.49 271.607 174.909 270.88 174.942Z" fill="#F4F7FA"/>
<path d="M270.865 183.938L260.724 184.51C260.048 184.548 259.519 185.107 259.519 185.785V190.645C259.519 191.382 260.141 191.966 260.877 191.919L271.019 191.272C271.691 191.229 272.214 190.671 272.214 189.998V185.213C272.214 184.479 271.598 183.897 270.865 183.938Z" fill="#F4F7FA"/>
<path d="M272.214 162.04V153.712C272.214 152.989 271.614 152.41 270.891 152.436L260.75 152.801C260.063 152.826 259.519 153.39 259.519 154.077V162.498C259.519 163.225 260.126 163.806 260.853 163.773L270.995 163.316C271.677 163.285 272.214 162.723 272.214 162.04Z" fill="#F4F7FA"/>
<path d="M249.808 175.892L208.513 177.754C207.831 177.785 207.294 178.347 207.294 179.03V184.273C207.294 185.007 207.91 185.589 208.643 185.548L249.938 183.221C250.614 183.182 251.143 182.623 251.143 181.946V177.168C251.143 176.44 250.535 175.86 249.808 175.892Z" fill="#F4F7FA"/>
<path d="M249.794 185.126L208.499 187.454C207.823 187.492 207.294 188.051 207.294 188.728V193.979C207.294 194.716 207.916 195.3 208.652 195.253L249.947 192.617C250.62 192.574 251.143 192.016 251.143 191.343V186.401C251.143 185.667 250.526 185.085 249.794 185.126Z" fill="#F4F7FA"/>
<path d="M251.143 162.991V154.471C251.143 153.747 250.543 153.168 249.82 153.195L208.525 154.681C207.838 154.706 207.294 155.27 207.294 155.957V164.853C207.294 165.58 207.901 166.161 208.628 166.128L249.923 164.266C250.606 164.235 251.143 163.673 251.143 162.991Z" fill="#F4F7FA"/>
<path d="M94.1519 224.073V227.887C94.1519 229.119 101.85 230.118 111.345 230.118C120.841 230.118 128.538 229.119 128.538 227.887V224.073H94.1519Z" fill="url(#paint13_linear)"/>
<path d="M111.347 226.304C120.842 226.304 128.54 225.305 128.54 224.073C128.54 222.841 120.842 221.842 111.347 221.842C101.851 221.842 94.1533 222.841 94.1533 224.073C94.1533 225.305 101.851 226.304 111.347 226.304Z" fill="url(#paint14_linear)"/>
<path d="M111.345 226.458C102.936 226.458 94.1418 225.655 94.1418 224.106C94.1418 224.021 94.1721 223.871 94.2574 223.871C94.3424 223.871 94.3059 223.988 94.3059 224.073C94.3059 225.056 101.304 226.15 111.345 226.15C121.386 226.15 128.384 225.056 128.384 224.073C128.384 223.988 128.399 223.908 128.484 223.908C128.569 223.908 128.548 224.022 128.548 224.107C128.548 225.656 119.754 226.458 111.345 226.458Z" fill="url(#paint15_linear)"/>
<path d="M109.72 224.197C109.889 224.081 110.069 223.965 110.261 223.852C110.451 223.738 110.699 223.636 110.999 223.544C111.302 223.452 111.679 223.378 112.133 223.32C112.586 223.262 113.153 223.231 113.83 223.228C114.495 223.225 115.118 223.246 115.702 223.291C116.284 223.337 116.797 223.405 117.241 223.495C117.682 223.586 118.043 223.697 118.321 223.83C118.597 223.964 118.762 224.116 118.815 224.288L120.751 224.308C120.891 224.309 121.015 224.32 121.122 224.342C121.23 224.364 121.282 224.392 121.283 224.426L121.283 224.585L118.795 224.561C118.707 224.757 118.485 224.935 118.127 225.097C117.772 225.259 117.317 225.4 116.763 225.518L115.856 225.392C115.775 225.38 115.708 225.364 115.656 225.345C115.604 225.326 115.578 225.305 115.578 225.283C115.578 225.252 115.648 225.217 115.788 225.178C115.929 225.138 116.087 225.089 116.263 225.031C116.439 224.974 116.612 224.905 116.782 224.826C116.951 224.747 117.064 224.653 117.123 224.543L111.249 224.485C111.094 224.599 110.92 224.71 110.73 224.82C110.538 224.929 110.284 225.028 109.968 225.116C109.652 225.203 109.258 225.274 108.786 225.329C108.313 225.384 107.72 225.413 107.003 225.417C106.465 225.419 105.941 225.399 105.428 225.356C104.914 225.312 104.458 225.247 104.06 225.161C103.661 225.074 103.335 224.967 103.078 224.839C102.824 224.712 102.681 224.565 102.651 224.399L101.057 224.383C100.917 224.382 100.793 224.371 100.681 224.35C100.571 224.329 100.515 224.3 100.515 224.265L100.514 224.106L102.693 224.126C102.79 223.959 102.987 223.812 103.289 223.688C103.591 223.563 103.96 223.452 104.395 223.355L105.124 223.455C105.346 223.486 105.456 223.523 105.456 223.565C105.456 223.587 105.412 223.615 105.32 223.649C105.226 223.682 105.119 223.722 104.993 223.769C104.869 223.815 104.747 223.87 104.63 223.932C104.511 223.995 104.423 224.066 104.364 224.145L109.72 224.197ZM104.344 224.414C104.388 224.519 104.486 224.609 104.634 224.685C104.782 224.761 104.966 224.823 105.188 224.872C105.409 224.921 105.658 224.956 105.934 224.979C106.211 225.002 106.501 225.013 106.804 225.011C107.156 225.01 107.464 224.994 107.727 224.966C107.988 224.937 108.218 224.898 108.418 224.849C108.616 224.799 108.79 224.742 108.938 224.677C109.085 224.612 109.216 224.541 109.335 224.465L104.344 224.414ZM117.133 224.272C117.089 224.166 116.982 224.073 116.816 223.993C116.65 223.914 116.437 223.847 116.18 223.792C115.922 223.738 115.621 223.698 115.277 223.671C114.934 223.645 114.556 223.632 114.142 223.634C113.775 223.636 113.456 223.653 113.192 223.684C112.927 223.715 112.697 223.756 112.501 223.809C112.307 223.862 112.139 223.923 112.005 223.993C111.868 224.062 111.741 224.137 111.624 224.217L117.133 224.272Z" fill="#FCB048"/>
<path d="M111.347 222.083C103.681 222.083 95.6991 222.758 94.4224 224.064C94.4723 224.11 94.5188 224.159 94.562 224.211C95.6381 223.304 102.229 222.391 111.347 222.391C120.7 222.391 127.397 223.352 128.208 224.281C128.248 224.23 128.29 224.181 128.336 224.135C127.282 222.783 119.15 222.083 111.347 222.083Z" fill="url(#paint16_linear)"/>
<path d="M89.3726 220.067V223.881C89.3726 225.113 97.0701 226.112 106.566 226.112C116.061 226.112 123.759 225.113 123.759 223.881V220.067H89.3726Z" fill="url(#paint17_linear)"/>
<path d="M106.567 222.299C116.063 222.299 123.761 221.3 123.761 220.067C123.761 218.835 116.063 217.836 106.567 217.836C97.0717 217.836 89.374 218.835 89.374 220.067C89.374 221.3 97.0717 222.299 106.567 222.299Z" fill="url(#paint18_linear)"/>
<path d="M106.565 222.452C98.156 222.452 89.3623 221.649 89.3623 220.1C89.3623 220.015 89.3926 219.865 89.4777 219.865C89.5627 219.865 89.5262 219.982 89.5262 220.067C89.5262 221.05 96.5241 222.144 106.565 222.144C116.607 222.144 123.605 221.05 123.605 220.067C123.605 219.982 123.619 219.902 123.704 219.902C123.789 219.902 123.769 220.016 123.769 220.101C123.769 221.65 114.975 222.452 106.565 222.452Z" fill="url(#paint19_linear)"/>
<path d="M104.941 220.192C105.11 220.075 105.289 219.96 105.481 219.846C105.672 219.732 105.92 219.63 106.22 219.538C106.522 219.446 106.9 219.372 107.353 219.314C107.807 219.256 108.374 219.226 109.051 219.222C109.715 219.219 110.339 219.24 110.922 219.286C111.504 219.331 112.018 219.399 112.461 219.489C112.903 219.58 113.263 219.692 113.541 219.824C113.818 219.958 113.982 220.11 114.035 220.282L115.971 220.302C116.112 220.303 116.236 220.314 116.343 220.336C116.451 220.358 116.503 220.386 116.503 220.42L116.504 220.579L114.015 220.555C113.928 220.751 113.705 220.929 113.348 221.091C112.992 221.253 112.537 221.394 111.983 221.512L111.077 221.386C110.996 221.374 110.929 221.358 110.876 221.339C110.824 221.32 110.799 221.299 110.799 221.277C110.799 221.246 110.869 221.211 111.009 221.172C111.149 221.132 111.307 221.083 111.484 221.025C111.66 220.968 111.832 220.899 112.003 220.82C112.172 220.741 112.285 220.647 112.344 220.537L106.469 220.479C106.315 220.592 106.141 220.704 105.951 220.813C105.759 220.923 105.505 221.022 105.189 221.11C104.872 221.197 104.478 221.268 104.006 221.323C103.533 221.378 102.941 221.407 102.224 221.41C101.686 221.413 101.161 221.393 100.648 221.349C100.135 221.306 99.6788 221.241 99.2804 221.154C98.882 221.068 98.5556 220.961 98.2992 220.833C98.0447 220.705 97.9018 220.559 97.8722 220.393L96.2784 220.377C96.1379 220.376 96.0136 220.365 95.9019 220.344C95.7919 220.323 95.736 220.294 95.7358 220.259L95.7351 220.1L97.9141 220.12C98.0105 219.952 98.2079 219.806 98.5097 219.681C98.8117 219.557 99.1803 219.446 99.6156 219.349L100.345 219.449C100.567 219.48 100.677 219.517 100.677 219.559C100.677 219.581 100.632 219.609 100.541 219.643C100.447 219.676 100.34 219.716 100.214 219.762C100.09 219.809 99.9676 219.864 99.8507 219.926C99.7323 219.989 99.6443 220.059 99.5853 220.139L104.941 220.192ZM99.5649 220.409C99.6087 220.513 99.7064 220.603 99.8544 220.679C100.002 220.755 100.187 220.817 100.408 220.866C100.63 220.915 100.879 220.951 101.154 220.973C101.432 220.996 101.722 221.007 102.024 221.006C102.377 221.004 102.685 220.989 102.948 220.96C103.209 220.931 103.439 220.892 103.639 220.843C103.837 220.794 104.011 220.737 104.158 220.672C104.306 220.606 104.437 220.536 104.555 220.459L99.5649 220.409ZM112.353 220.266C112.31 220.16 112.203 220.068 112.037 219.988C111.871 219.908 111.658 219.841 111.4 219.787C111.142 219.733 110.841 219.692 110.497 219.666C110.155 219.639 109.777 219.627 109.363 219.629C108.995 219.631 108.677 219.648 108.412 219.678C108.148 219.71 107.917 219.751 107.721 219.804C107.527 219.856 107.36 219.918 107.225 219.987C107.089 220.057 106.961 220.132 106.844 220.211L112.353 220.266Z" fill="#FCB048"/>
<path d="M106.568 218.078C98.9018 218.078 90.9196 218.752 89.6428 220.058C89.6928 220.104 89.7393 220.153 89.7824 220.205C90.8586 219.298 97.4496 218.385 106.568 218.385C115.92 218.385 122.617 219.346 123.428 220.275C123.468 220.224 123.511 220.175 123.557 220.129C122.502 218.777 114.37 218.078 106.568 218.078Z" fill="url(#paint20_linear)"/>
<path d="M93.4963 216.073V219.887C93.4963 221.119 101.194 222.118 110.69 222.118C120.185 222.118 127.883 221.119 127.883 219.887V216.073H93.4963Z" fill="url(#paint21_linear)"/>
<path d="M110.69 218.305C120.185 218.305 127.883 217.306 127.883 216.073C127.883 214.841 120.185 213.842 110.69 213.842C101.194 213.842 93.4963 214.841 93.4963 216.073C93.4963 217.306 101.194 218.305 110.69 218.305Z" fill="url(#paint22_linear)"/>
<path d="M110.69 218.458C102.28 218.458 93.4863 217.655 93.4863 216.106C93.4863 216.021 93.5166 215.871 93.6019 215.871C93.6869 215.871 93.6504 215.988 93.6504 216.073C93.6504 217.056 100.648 218.151 110.69 218.151C120.731 218.151 127.729 217.056 127.729 216.073C127.729 215.988 127.744 215.909 127.829 215.909C127.914 215.909 127.893 216.022 127.893 216.107C127.893 217.656 119.099 218.458 110.69 218.458Z" fill="url(#paint23_linear)"/>
<path d="M109.065 216.198C109.233 216.081 109.413 215.966 109.605 215.852C109.795 215.738 110.043 215.636 110.344 215.544C110.646 215.453 111.023 215.378 111.477 215.32C111.93 215.262 112.498 215.232 113.175 215.228C113.839 215.225 114.462 215.246 115.046 215.292C115.628 215.337 116.141 215.405 116.585 215.496C117.027 215.586 117.387 215.698 117.665 215.831C117.942 215.964 118.106 216.116 118.159 216.288L120.095 216.308C120.236 216.309 120.36 216.32 120.466 216.342C120.575 216.364 120.627 216.392 120.627 216.426L120.628 216.585L118.139 216.562C118.052 216.757 117.829 216.935 117.472 217.097C117.116 217.26 116.661 217.4 116.107 217.518L115.2 217.392C115.119 217.38 115.053 217.364 115 217.345C114.948 217.326 114.923 217.305 114.923 217.283C114.923 217.252 114.993 217.217 115.133 217.178C115.273 217.138 115.431 217.09 115.608 217.032C115.784 216.974 115.956 216.905 116.127 216.826C116.296 216.747 116.409 216.653 116.468 216.543L110.593 216.485C110.439 216.598 110.265 216.71 110.075 216.82C109.882 216.929 109.629 217.028 109.313 217.116C108.996 217.203 108.602 217.274 108.13 217.329C107.657 217.384 107.065 217.413 106.348 217.416C105.809 217.419 105.285 217.399 104.772 217.355C104.259 217.312 103.803 217.247 103.404 217.161C103.006 217.074 102.68 216.967 102.423 216.839C102.169 216.712 102.026 216.565 101.996 216.399L100.402 216.383C100.262 216.382 100.137 216.371 100.026 216.35C99.9156 216.329 99.8598 216.301 99.8596 216.265L99.8589 216.106L102.038 216.126C102.134 215.959 102.332 215.812 102.634 215.688C102.936 215.563 103.304 215.452 103.74 215.355L104.469 215.455C104.691 215.487 104.801 215.523 104.801 215.565C104.801 215.587 104.756 215.615 104.665 215.649C104.571 215.682 104.463 215.722 104.338 215.769C104.214 215.815 104.092 215.87 103.975 215.932C103.856 215.995 103.768 216.066 103.709 216.145L109.065 216.198ZM103.689 216.415C103.732 216.52 103.83 216.609 103.978 216.685C104.126 216.761 104.31 216.823 104.532 216.872C104.754 216.921 105.002 216.957 105.278 216.98C105.555 217.002 105.845 217.013 106.148 217.012C106.501 217.01 106.809 216.995 107.072 216.966C107.333 216.937 107.563 216.899 107.762 216.849C107.96 216.8 108.135 216.743 108.282 216.678C108.429 216.612 108.56 216.542 108.679 216.466L103.689 216.415ZM116.477 216.272C116.434 216.166 116.327 216.074 116.161 215.994C115.995 215.914 115.782 215.847 115.524 215.793C115.266 215.739 114.965 215.698 114.621 215.672C114.279 215.645 113.901 215.633 113.487 215.635C113.119 215.637 112.801 215.653 112.536 215.684C112.272 215.716 112.041 215.757 111.845 215.81C111.651 215.862 111.484 215.923 111.349 215.993C111.213 216.063 111.085 216.138 110.969 216.217L116.477 216.272Z" fill="#FCB048"/>
<path d="M110.692 214.084C103.026 214.084 95.0436 214.758 93.7668 216.064C93.8168 216.11 93.8633 216.159 93.9064 216.211C94.9826 215.304 101.574 214.391 110.692 214.391C120.044 214.391 126.741 215.352 127.552 216.281C127.592 216.23 127.635 216.181 127.681 216.135C126.626 214.783 118.494 214.084 110.692 214.084Z" fill="url(#paint24_linear)"/>
<path d="M95.9988 212.068V215.881C95.9988 217.114 103.697 218.112 113.192 218.112C122.688 218.112 130.385 217.114 130.385 215.881V212.068H95.9988Z" fill="url(#paint25_linear)"/>
<path d="M113.193 214.299C122.688 214.299 130.386 213.3 130.386 212.068C130.386 210.835 122.688 209.836 113.193 209.836C103.697 209.836 95.9995 210.835 95.9995 212.068C95.9995 213.3 103.697 214.299 113.193 214.299Z" fill="url(#paint26_linear)"/>
<path d="M113.192 214.453C104.783 214.453 95.989 213.65 95.989 212.1C95.989 212.015 96.0193 211.866 96.1043 211.866C96.1894 211.866 96.1528 211.983 96.1528 212.068C96.1528 213.05 103.151 214.145 113.192 214.145C123.234 214.145 130.231 213.05 130.231 212.068C130.231 211.983 130.246 211.903 130.331 211.903C130.416 211.903 130.396 212.017 130.396 212.102C130.396 213.651 121.602 214.453 113.192 214.453Z" fill="url(#paint27_linear)"/>
<path d="M111.567 212.192C111.736 212.075 111.916 211.96 112.108 211.846C112.298 211.733 112.546 211.63 112.846 211.539C113.148 211.447 113.526 211.372 113.98 211.314C114.433 211.257 115.001 211.226 115.678 211.223C116.342 211.22 116.965 211.241 117.549 211.286C118.131 211.332 118.644 211.4 119.088 211.49C119.529 211.58 119.89 211.692 120.168 211.825C120.444 211.958 120.609 212.111 120.662 212.283L122.598 212.303C122.738 212.303 122.863 212.315 122.969 212.337C123.077 212.359 123.13 212.387 123.13 212.421L123.131 212.58L120.642 212.556C120.554 212.751 120.332 212.93 119.974 213.092C119.619 213.254 119.164 213.394 118.61 213.513L117.703 213.387C117.622 213.375 117.555 213.359 117.503 213.34C117.451 213.321 117.425 213.3 117.425 213.277C117.425 213.247 117.495 213.212 117.636 213.173C117.776 213.133 117.934 213.084 118.11 213.026C118.286 212.969 118.459 212.9 118.63 212.821C118.798 212.742 118.912 212.648 118.97 212.538L113.096 212.48C112.942 212.593 112.768 212.705 112.577 212.815C112.385 212.924 112.131 213.023 111.815 213.111C111.499 213.198 111.105 213.269 110.633 213.324C110.16 213.379 109.567 213.408 108.85 213.412C108.312 213.414 107.788 213.394 107.275 213.351C106.761 213.307 106.305 213.242 105.907 213.156C105.508 213.069 105.182 212.962 104.926 212.834C104.671 212.707 104.528 212.56 104.498 212.395L102.905 212.378C102.764 212.377 102.64 212.366 102.528 212.345C102.418 212.324 102.362 212.295 102.362 212.26L102.361 212.101L104.54 212.121C104.637 211.954 104.834 211.807 105.136 211.683C105.438 211.558 105.807 211.447 106.242 211.35L106.972 211.45C107.193 211.481 107.303 211.518 107.304 211.56C107.304 211.582 107.259 211.61 107.167 211.644C107.074 211.677 106.966 211.717 106.84 211.764C106.716 211.81 106.594 211.865 106.477 211.927C106.358 211.99 106.271 212.061 106.212 212.14L111.567 212.192ZM106.191 212.409C106.235 212.514 106.333 212.604 106.481 212.68C106.629 212.755 106.813 212.818 107.035 212.867C107.256 212.915 107.505 212.951 107.781 212.974C108.058 212.997 108.348 213.007 108.651 213.006C109.004 213.004 109.311 212.989 109.574 212.96C109.835 212.932 110.065 212.893 110.265 212.843C110.463 212.794 110.637 212.737 110.785 212.672C110.932 212.607 111.063 212.536 111.182 212.46L106.191 212.409ZM118.98 212.267C118.936 212.161 118.829 212.068 118.663 211.988C118.497 211.909 118.284 211.841 118.027 211.787C117.769 211.733 117.468 211.693 117.124 211.666C116.782 211.64 116.403 211.627 115.989 211.629C115.622 211.631 115.303 211.648 115.039 211.679C114.774 211.71 114.544 211.751 114.348 211.804C114.154 211.857 113.987 211.918 113.852 211.988C113.715 212.057 113.588 212.132 113.471 212.212L118.98 212.267Z" fill="#FCB048"/>
<path d="M113.195 210.078C105.528 210.078 97.5463 210.753 96.2695 212.058C96.3195 212.104 96.366 212.154 96.4091 212.205C97.4853 211.299 104.076 210.386 113.195 210.386C122.547 210.386 129.244 211.346 130.055 212.275C130.095 212.224 130.137 212.176 130.183 212.13C129.129 210.778 120.997 210.078 113.195 210.078Z" fill="url(#paint28_linear)"/>
<path d="M94.1519 207.746V211.559C94.1519 212.792 101.85 213.791 111.345 213.791C120.841 213.791 128.538 212.792 128.538 211.559V207.746H94.1519Z" fill="url(#paint29_linear)"/>
<path d="M111.347 209.977C120.842 209.977 128.54 208.978 128.54 207.746C128.54 206.514 120.842 205.515 111.347 205.515C101.851 205.515 94.1533 206.514 94.1533 207.746C94.1533 208.978 101.851 209.977 111.347 209.977Z" fill="url(#paint30_linear)"/>
<path d="M111.345 210.131C102.936 210.131 94.1418 209.328 94.1418 207.778C94.1418 207.693 94.1721 207.544 94.2574 207.544C94.3424 207.544 94.3059 207.661 94.3059 207.746C94.3059 208.728 101.304 209.823 111.345 209.823C121.386 209.823 128.384 208.728 128.384 207.746C128.384 207.661 128.399 207.581 128.484 207.581C128.569 207.581 128.548 207.695 128.548 207.78C128.548 209.329 119.754 210.131 111.345 210.131Z" fill="url(#paint31_linear)"/>
<path d="M109.72 207.87C109.889 207.754 110.069 207.639 110.261 207.525C110.451 207.411 110.699 207.308 110.999 207.217C111.302 207.125 111.679 207.05 112.133 206.993C112.586 206.935 113.153 206.904 113.83 206.901C114.495 206.898 115.118 206.919 115.702 206.964C116.284 207.01 116.797 207.078 117.241 207.168C117.682 207.258 118.043 207.37 118.321 207.503C118.597 207.636 118.762 207.789 118.815 207.961L120.751 207.98C120.891 207.981 121.015 207.993 121.122 208.015C121.23 208.037 121.282 208.065 121.283 208.098L121.283 208.258L118.795 208.234C118.707 208.429 118.485 208.608 118.127 208.77C117.772 208.932 117.317 209.072 116.763 209.191L115.856 209.065C115.775 209.053 115.708 209.037 115.656 209.017C115.604 208.998 115.578 208.978 115.578 208.955C115.578 208.924 115.648 208.89 115.788 208.85C115.929 208.811 116.087 208.762 116.263 208.704C116.439 208.646 116.612 208.578 116.782 208.499C116.951 208.42 117.064 208.325 117.123 208.216L111.249 208.157C111.094 208.271 110.92 208.383 110.73 208.492C110.538 208.602 110.284 208.701 109.968 208.788C109.652 208.876 109.258 208.947 108.786 209.002C108.313 209.057 107.72 209.086 107.003 209.089C106.465 209.092 105.941 209.071 105.428 209.028C104.914 208.985 104.458 208.92 104.06 208.833C103.661 208.746 103.335 208.639 103.078 208.512C102.824 208.384 102.681 208.238 102.651 208.072L101.057 208.056C100.917 208.055 100.793 208.044 100.681 208.023C100.571 208.001 100.515 207.973 100.515 207.938L100.514 207.778L102.693 207.799C102.79 207.631 102.987 207.485 103.289 207.36C103.591 207.235 103.96 207.124 104.395 207.027L105.124 207.128C105.346 207.159 105.456 207.195 105.456 207.237C105.456 207.26 105.412 207.288 105.32 207.321C105.226 207.355 105.119 207.395 104.993 207.441C104.869 207.488 104.747 207.542 104.63 207.605C104.511 207.667 104.423 207.738 104.364 207.817L109.72 207.87ZM104.344 208.088C104.388 208.192 104.486 208.282 104.634 208.358C104.782 208.434 104.966 208.496 105.188 208.545C105.409 208.594 105.658 208.629 105.934 208.652C106.211 208.675 106.501 208.686 106.804 208.684C107.156 208.683 107.464 208.667 107.727 208.639C107.988 208.61 108.218 208.571 108.418 208.522C108.616 208.472 108.79 208.416 108.938 208.35C109.085 208.285 109.216 208.215 109.335 208.138L104.344 208.088ZM117.133 207.945C117.089 207.839 116.982 207.746 116.816 207.666C116.65 207.587 116.437 207.52 116.18 207.466C115.922 207.411 115.621 207.371 115.277 207.344C114.934 207.318 114.556 207.306 114.142 207.308C113.775 207.309 113.456 207.326 113.192 207.357C112.927 207.388 112.697 207.43 112.501 207.482C112.307 207.535 112.139 207.596 112.005 207.666C111.868 207.736 111.741 207.81 111.624 207.89L117.133 207.945Z" fill="#FCB048"/>
<path d="M111.347 205.756C103.681 205.756 95.6991 206.431 94.4224 207.737C94.4723 207.783 94.5188 207.832 94.562 207.884C95.6381 206.977 102.229 206.064 111.347 206.064C120.7 206.064 127.397 207.025 128.208 207.954C128.248 207.903 128.29 207.854 128.336 207.808C127.282 206.456 119.15 205.756 111.347 205.756Z" fill="url(#paint32_linear)"/>
<path d="M89.3726 203.74V207.554C89.3726 208.786 97.0701 209.785 106.566 209.785C116.061 209.785 123.759 208.786 123.759 207.554V203.74H89.3726Z" fill="url(#paint33_linear)"/>
<path d="M106.567 205.972C116.063 205.972 123.761 204.973 123.761 203.74C123.761 202.508 116.063 201.509 106.567 201.509C97.0717 201.509 89.374 202.508 89.374 203.74C89.374 204.973 97.0717 205.972 106.567 205.972Z" fill="url(#paint34_linear)"/>
<path d="M106.565 206.125C98.156 206.125 89.3623 205.322 89.3623 203.773C89.3623 203.688 89.3926 203.538 89.4777 203.538C89.5627 203.538 89.5262 203.655 89.5262 203.74C89.5262 204.723 96.5241 205.818 106.565 205.818C116.607 205.818 123.605 204.723 123.605 203.74C123.605 203.655 123.619 203.576 123.704 203.576C123.789 203.576 123.769 203.689 123.769 203.774C123.769 205.323 114.975 206.125 106.565 206.125Z" fill="url(#paint35_linear)"/>
<path d="M104.941 203.865C105.11 203.748 105.289 203.633 105.481 203.519C105.672 203.406 105.92 203.303 106.22 203.211C106.522 203.12 106.9 203.045 107.353 202.987C107.807 202.929 108.374 202.899 109.051 202.895C109.715 202.892 110.339 202.913 110.922 202.959C111.504 203.004 112.018 203.072 112.461 203.163C112.903 203.253 113.263 203.365 113.541 203.498C113.818 203.631 113.982 203.784 114.035 203.955L115.971 203.975C116.112 203.976 116.236 203.987 116.343 204.009C116.451 204.032 116.503 204.059 116.503 204.093L116.504 204.253L114.015 204.229C113.928 204.424 113.705 204.602 113.348 204.764C112.992 204.927 112.537 205.067 111.983 205.185L111.077 205.059C110.996 205.047 110.929 205.031 110.876 205.012C110.824 204.993 110.799 204.972 110.799 204.95C110.799 204.919 110.869 204.884 111.009 204.845C111.149 204.805 111.307 204.757 111.484 204.699C111.66 204.641 111.832 204.572 112.003 204.493C112.172 204.414 112.285 204.32 112.344 204.21L106.469 204.152C106.315 204.266 106.141 204.377 105.951 204.487C105.759 204.596 105.505 204.695 105.189 204.783C104.872 204.871 104.478 204.942 104.006 204.997C103.533 205.051 102.941 205.08 102.224 205.084C101.686 205.086 101.161 205.066 100.648 205.023C100.135 204.979 99.6788 204.914 99.2804 204.828C98.882 204.741 98.5556 204.634 98.2992 204.507C98.0447 204.379 97.9018 204.232 97.8722 204.067L96.2784 204.05C96.1379 204.049 96.0136 204.038 95.9019 204.017C95.7919 203.996 95.736 203.968 95.7358 203.932L95.7351 203.773L97.9141 203.794C98.0105 203.626 98.2079 203.479 98.5097 203.355C98.8117 203.23 99.1803 203.119 99.6156 203.022L100.345 203.122C100.567 203.154 100.677 203.19 100.677 203.232C100.677 203.255 100.632 203.282 100.541 203.316C100.447 203.349 100.34 203.389 100.214 203.436C100.09 203.483 99.9676 203.537 99.8507 203.6C99.7323 203.662 99.6443 203.733 99.5853 203.812L104.941 203.865ZM99.5649 204.082C99.6087 204.187 99.7064 204.277 99.8544 204.352C100.002 204.428 100.187 204.49 100.408 204.539C100.63 204.588 100.879 204.624 101.154 204.647C101.432 204.669 101.722 204.68 102.024 204.679C102.377 204.677 102.685 204.662 102.948 204.633C103.209 204.604 103.439 204.566 103.639 204.516C103.837 204.467 104.011 204.41 104.158 204.345C104.306 204.279 104.437 204.209 104.555 204.133L99.5649 204.082ZM112.353 203.939C112.31 203.834 112.203 203.741 112.037 203.661C111.871 203.582 111.658 203.514 111.4 203.46C111.142 203.406 110.841 203.365 110.497 203.339C110.155 203.312 109.777 203.3 109.363 203.302C108.995 203.304 108.677 203.32 108.412 203.351C108.148 203.383 107.917 203.424 107.721 203.477C107.527 203.529 107.36 203.59 107.225 203.66C107.089 203.73 106.961 203.805 106.844 203.884L112.353 203.939Z" fill="#FCB048"/>
<path d="M106.568 201.751C98.9018 201.751 90.9196 202.425 89.6428 203.731C89.6928 203.777 89.7393 203.826 89.7824 203.878C90.8586 202.971 97.4496 202.058 106.568 202.058C115.92 202.058 122.617 203.019 123.428 203.948C123.468 203.897 123.511 203.848 123.557 203.802C122.502 202.45 114.37 201.751 106.568 201.751Z" fill="url(#paint36_linear)"/>
<path d="M93.4963 199.746V203.56C93.4963 204.792 101.194 205.791 110.69 205.791C120.185 205.791 127.883 204.792 127.883 203.56V199.746H93.4963Z" fill="url(#paint37_linear)"/>
<path d="M110.69 201.978C120.185 201.978 127.883 200.979 127.883 199.746C127.883 198.514 120.185 197.515 110.69 197.515C101.194 197.515 93.4963 198.514 93.4963 199.746C93.4963 200.979 101.194 201.978 110.69 201.978Z" fill="url(#paint38_linear)"/>
<path d="M110.69 202.132C102.28 202.132 93.4863 201.328 93.4863 199.779C93.4863 199.694 93.5166 199.544 93.6019 199.544C93.6869 199.544 93.6504 199.661 93.6504 199.747C93.6504 200.729 100.648 201.824 110.69 201.824C120.731 201.824 127.729 200.729 127.729 199.747C127.729 199.661 127.744 199.582 127.829 199.582C127.914 199.582 127.893 199.695 127.893 199.78C127.893 201.33 119.099 202.132 110.69 202.132Z" fill="url(#paint39_linear)"/>
<path d="M109.065 199.871C109.233 199.754 109.413 199.639 109.605 199.525C109.795 199.412 110.043 199.309 110.344 199.217C110.646 199.126 111.023 199.051 111.477 198.993C111.93 198.935 112.498 198.905 113.175 198.902C113.839 198.898 114.462 198.919 115.046 198.965C115.628 199.01 116.141 199.078 116.585 199.169C117.027 199.259 117.387 199.371 117.665 199.504C117.942 199.637 118.106 199.79 118.159 199.962L120.095 199.981C120.236 199.982 120.36 199.994 120.466 200.016C120.575 200.038 120.627 200.066 120.627 200.099L120.628 200.259L118.139 200.235C118.052 200.43 117.829 200.608 117.472 200.77C117.116 200.933 116.661 201.073 116.107 201.191L115.2 201.065C115.119 201.053 115.053 201.037 115 201.018C114.948 200.999 114.923 200.978 114.923 200.956C114.923 200.925 114.993 200.89 115.133 200.851C115.273 200.812 115.431 200.763 115.608 200.705C115.784 200.647 115.956 200.578 116.127 200.499C116.296 200.421 116.409 200.326 116.468 200.216L110.593 200.158C110.439 200.272 110.265 200.383 110.075 200.493C109.882 200.602 109.629 200.701 109.313 200.789C108.996 200.876 108.602 200.948 108.13 201.002C107.657 201.057 107.065 201.086 106.348 201.09C105.809 201.092 105.285 201.072 104.772 201.029C104.259 200.985 103.803 200.92 103.404 200.834C103.006 200.747 102.68 200.64 102.423 200.512C102.169 200.385 102.026 200.238 101.996 200.073L100.402 200.056C100.262 200.055 100.137 200.044 100.026 200.023C99.9156 200.002 99.8598 199.974 99.8596 199.938L99.8589 199.779L102.038 199.8C102.134 199.632 102.332 199.485 102.634 199.361C102.936 199.236 103.304 199.125 103.74 199.028L104.469 199.128C104.691 199.159 104.801 199.196 104.801 199.238C104.801 199.26 104.756 199.288 104.665 199.322C104.571 199.355 104.463 199.395 104.338 199.442C104.214 199.488 104.092 199.543 103.975 199.605C103.856 199.668 103.768 199.739 103.709 199.818L109.065 199.871ZM103.689 200.088C103.732 200.192 103.83 200.282 103.978 200.358C104.126 200.434 104.31 200.496 104.532 200.545C104.754 200.594 105.002 200.63 105.278 200.653C105.555 200.675 105.845 200.686 106.148 200.685C106.501 200.683 106.809 200.668 107.072 200.639C107.333 200.61 107.563 200.572 107.762 200.522C107.96 200.473 108.135 200.416 108.282 200.351C108.429 200.285 108.56 200.215 108.679 200.138L103.689 200.088ZM116.477 199.946C116.434 199.84 116.327 199.747 116.161 199.667C115.995 199.588 115.782 199.52 115.524 199.466C115.266 199.412 114.965 199.371 114.621 199.345C114.279 199.319 113.901 199.306 113.487 199.308C113.119 199.31 112.801 199.327 112.536 199.357C112.272 199.389 112.041 199.43 111.845 199.483C111.651 199.535 111.484 199.597 111.349 199.666C111.213 199.736 111.085 199.811 110.969 199.891L116.477 199.946Z" fill="#FCB048"/>
<path d="M110.692 197.757C103.026 197.757 95.0436 198.431 93.7668 199.737C93.8168 199.783 93.8633 199.832 93.9064 199.884C94.9826 198.977 101.574 198.065 110.692 198.065C120.044 198.065 126.741 199.025 127.552 199.954C127.592 199.903 127.635 199.854 127.681 199.808C126.626 198.456 118.494 197.757 110.692 197.757Z" fill="url(#paint40_linear)"/>
<path d="M91.3513 195.741V199.554C91.3513 200.787 99.049 201.786 108.545 201.786C118.04 201.786 125.738 200.787 125.738 199.554V195.741H91.3513Z" fill="url(#paint41_linear)"/>
<path d="M108.545 197.972C118.041 197.972 125.739 196.973 125.739 195.741C125.739 194.509 118.041 193.51 108.545 193.51C99.0497 193.51 91.3521 194.509 91.3521 195.741C91.3521 196.973 99.0497 197.972 108.545 197.972Z" fill="url(#paint42_linear)"/>
<path d="M108.544 198.126C100.135 198.126 91.3411 197.323 91.3411 195.773C91.3411 195.688 91.3714 195.539 91.4564 195.539C91.5415 195.539 91.5049 195.656 91.5049 195.741C91.5049 196.723 98.5028 197.818 108.544 197.818C118.586 197.818 125.584 196.723 125.584 195.741C125.584 195.656 125.598 195.576 125.683 195.576C125.768 195.576 125.748 195.69 125.748 195.775C125.748 197.324 116.954 198.126 108.544 198.126Z" fill="url(#paint43_linear)"/>
<path d="M106.92 195.865C107.088 195.748 107.268 195.633 107.46 195.52C107.65 195.406 107.898 195.303 108.199 195.212C108.501 195.12 108.879 195.045 109.332 194.987C109.786 194.93 110.353 194.899 111.03 194.896C111.694 194.892 112.317 194.914 112.901 194.959C113.483 195.005 113.997 195.072 114.44 195.163C114.882 195.253 115.242 195.365 115.52 195.498C115.797 195.631 115.961 195.784 116.014 195.956L117.95 195.975C118.091 195.976 118.215 195.988 118.321 196.01C118.43 196.032 118.482 196.06 118.482 196.093L118.483 196.253L115.994 196.229C115.907 196.424 115.684 196.603 115.327 196.765C114.971 196.927 114.516 197.067 113.962 197.186L113.056 197.06C112.974 197.047 112.908 197.032 112.855 197.012C112.803 196.993 112.778 196.973 112.778 196.95C112.778 196.919 112.848 196.884 112.988 196.845C113.128 196.806 113.286 196.757 113.462 196.699C113.639 196.641 113.811 196.573 113.982 196.494C114.151 196.415 114.264 196.32 114.323 196.211L108.448 196.152C108.294 196.266 108.12 196.377 107.929 196.487C107.737 196.597 107.484 196.695 107.167 196.783C106.851 196.871 106.457 196.942 105.985 196.997C105.512 197.051 104.919 197.08 104.203 197.084C103.664 197.087 103.14 197.066 102.627 197.023C102.113 196.979 101.658 196.914 101.259 196.828C100.861 196.741 100.534 196.634 100.278 196.507C100.023 196.379 99.8805 196.232 99.8507 196.067L98.2569 196.05C98.1164 196.049 97.9923 196.038 97.8804 196.017C97.7704 195.996 97.7145 195.968 97.7144 195.932L97.7136 195.773L99.8928 195.794C99.9892 195.626 100.186 195.48 100.488 195.355C100.79 195.23 101.159 195.119 101.594 195.022L102.324 195.123C102.546 195.154 102.656 195.19 102.656 195.232C102.656 195.255 102.611 195.283 102.52 195.316C102.426 195.35 102.318 195.39 102.192 195.436C102.068 195.483 101.946 195.537 101.829 195.6C101.711 195.662 101.623 195.733 101.564 195.813L106.92 195.865ZM101.544 196.083C101.587 196.187 101.685 196.277 101.833 196.353C101.981 196.429 102.165 196.491 102.387 196.54C102.609 196.589 102.857 196.624 103.133 196.647C103.41 196.67 103.7 196.681 104.003 196.679C104.356 196.677 104.664 196.662 104.926 196.634C105.187 196.605 105.418 196.566 105.617 196.517C105.815 196.468 105.99 196.41 106.137 196.345C106.284 196.28 106.416 196.209 106.534 196.133L101.544 196.083ZM114.332 195.94C114.288 195.834 114.182 195.741 114.016 195.661C113.85 195.582 113.637 195.515 113.379 195.46C113.121 195.406 112.82 195.366 112.476 195.339C112.134 195.313 111.756 195.3 111.342 195.302C110.974 195.304 110.656 195.321 110.391 195.352C110.127 195.383 109.896 195.425 109.7 195.477C109.506 195.53 109.339 195.591 109.204 195.661C109.068 195.73 108.94 195.805 108.823 195.885L114.332 195.94Z" fill="#FCB048"/>
<path d="M108.547 193.751C100.881 193.751 92.8983 194.426 91.6216 195.731C91.6715 195.778 91.718 195.827 91.7612 195.878C92.8373 194.972 99.4284 194.059 108.547 194.059C117.899 194.059 124.596 195.019 125.407 195.948C125.447 195.898 125.489 195.849 125.535 195.803C124.481 194.451 116.349 193.751 108.547 193.751Z" fill="url(#paint44_linear)"/>
<path d="M130.628 198.43L127.521 200.64C126.517 201.354 130.164 208.206 135.668 215.944C141.172 223.682 146.448 229.375 147.452 228.661L150.56 226.451L130.628 198.43Z" fill="url(#paint45_linear)"/>
<path d="M150.56 226.45C149.556 227.165 144.28 221.471 138.776 213.733C133.272 205.995 129.624 199.144 130.628 198.429C131.633 197.715 136.908 203.409 142.412 211.146C147.916 218.884 151.564 225.736 150.56 226.45Z" fill="url(#paint46_linear)"/>
<path d="M138.651 213.822C133.776 206.969 129.334 199.338 130.596 198.44C130.666 198.391 130.805 198.329 130.854 198.398C130.904 198.467 130.787 198.505 130.718 198.555C129.917 199.124 133.081 205.461 138.902 213.644C144.722 221.826 149.67 226.894 150.471 226.325C150.54 226.275 150.613 226.241 150.663 226.31C150.712 226.38 150.608 226.429 150.538 226.478C149.276 227.376 143.525 220.675 138.651 213.822Z" fill="url(#paint47_linear)"/>
<path d="M139.551 211.188C139.744 211.258 139.942 211.337 140.146 211.428C140.349 211.517 140.576 211.66 140.825 211.851C141.075 212.044 141.354 212.309 141.664 212.645C141.975 212.981 142.328 213.425 142.723 213.975C143.111 214.515 143.455 215.035 143.756 215.537C144.057 216.037 144.299 216.495 144.482 216.909C144.664 217.321 144.782 217.68 144.835 217.983C144.887 218.286 144.858 218.508 144.748 218.651L145.855 220.24C145.935 220.355 145.998 220.463 146.042 220.562C146.086 220.663 146.094 220.722 146.067 220.742L145.937 220.835L144.514 218.793C144.304 218.835 144.03 218.757 143.691 218.559C143.352 218.363 142.974 218.074 142.556 217.691L142.134 216.88C142.097 216.806 142.071 216.743 142.056 216.689C142.042 216.636 142.044 216.603 142.062 216.59C142.087 216.572 142.156 216.609 142.269 216.7C142.383 216.792 142.514 216.892 142.664 217.002C142.813 217.112 142.969 217.213 143.132 217.306C143.294 217.398 143.437 217.436 143.56 217.42L140.203 212.599C140.021 212.54 139.829 212.462 139.629 212.371C139.428 212.278 139.201 212.129 138.946 211.921C138.691 211.714 138.405 211.434 138.087 211.082C137.768 210.728 137.401 210.262 136.983 209.68C136.669 209.243 136.382 208.804 136.119 208.36C135.857 207.917 135.646 207.508 135.486 207.133C135.325 206.758 135.223 206.43 135.179 206.147C135.135 205.866 135.172 205.664 135.29 205.544L134.379 204.236C134.298 204.121 134.235 204.013 134.188 203.91C134.141 203.808 134.132 203.746 134.161 203.725L134.29 203.632L135.536 205.42C135.729 205.401 135.963 205.477 136.239 205.651C136.516 205.825 136.82 206.061 137.152 206.359L137.493 207.012C137.596 207.211 137.63 207.322 137.596 207.346C137.578 207.359 137.529 207.339 137.449 207.284C137.367 207.227 137.272 207.162 137.161 207.086C137.052 207.012 136.936 206.944 136.818 206.885C136.698 206.825 136.589 206.795 136.491 206.792L139.551 211.188ZM136.258 206.933C136.198 207.029 136.181 207.161 136.205 207.325C136.229 207.49 136.285 207.676 136.374 207.885C136.463 208.094 136.578 208.317 136.719 208.555C136.861 208.794 137.021 209.037 137.197 209.283C137.403 209.569 137.594 209.811 137.77 210.009C137.944 210.205 138.11 210.37 138.265 210.504C138.42 210.637 138.568 210.746 138.706 210.828C138.845 210.91 138.978 210.976 139.109 211.028L136.258 206.933ZM143.787 217.271C143.847 217.174 143.861 217.033 143.83 216.852C143.799 216.671 143.73 216.458 143.625 216.217C143.519 215.975 143.378 215.707 143.2 215.411C143.023 215.117 142.814 214.801 142.572 214.465C142.358 214.167 142.16 213.916 141.981 213.719C141.803 213.521 141.635 213.358 141.479 213.229C141.323 213.101 141.176 213 141.042 212.931C140.906 212.86 140.771 212.799 140.638 212.75L143.787 217.271Z" fill="#FCB048"/>
<path d="M142.217 211.288C137.773 205.041 132.597 198.928 130.793 198.644C130.784 198.712 130.771 198.778 130.754 198.843C132.116 199.195 136.681 204.036 141.966 211.467C147.387 219.088 150.486 225.102 150.199 226.301C150.263 226.304 150.328 226.31 150.392 226.321C150.883 224.678 146.739 217.646 142.217 211.288Z" fill="url(#paint48_linear)"/>
<defs>
<linearGradient id="paint0_linear" x1="267.526" y1="-16.8539" x2="246.033" y2="186.315" gradientUnits="userSpaceOnUse">
<stop stop-color="#3162AB"/>
<stop offset="1" stop-color="#2D3E79"/>
</linearGradient>
<linearGradient id="paint1_linear" x1="187.389" y1="125.332" x2="243.364" y2="125.332" gradientUnits="userSpaceOnUse">
<stop stop-color="#FFC444"/>
<stop offset="0.9964" stop-color="#F36F56"/>
</linearGradient>
<linearGradient id="paint2_linear" x1="202.501" y1="125.332" x2="243.364" y2="125.332" gradientUnits="userSpaceOnUse">
<stop stop-color="#FFC444"/>
<stop offset="0.9964" stop-color="#F36F56"/>
</linearGradient>
<linearGradient id="paint3_linear" x1="271.659" y1="116.6" x2="365.416" y2="274.566" gradientUnits="userSpaceOnUse">
<stop stop-color="#FFC444"/>
<stop offset="0.9964" stop-color="#F36F56"/>
</linearGradient>
<linearGradient id="paint4_linear" x1="271.764" y1="103.302" x2="346.769" y2="279.45" gradientUnits="userSpaceOnUse">
<stop stop-color="#FFC444"/>
<stop offset="0.9964" stop-color="#F36F56"/>
</linearGradient>
<linearGradient id="paint5_linear" x1="284.87" y1="-15.8856" x2="260.584" y2="191.415" gradientUnits="userSpaceOnUse">
<stop stop-color="#3162AB"/>
<stop offset="1" stop-color="#2D3E79"/>
</linearGradient>
<linearGradient id="paint6_linear" x1="249.538" y1="58.3296" x2="245.756" y2="88.9725" gradientUnits="userSpaceOnUse">
<stop stop-color="#3162AB"/>
<stop offset="1" stop-color="#2D3E79"/>
</linearGradient>
<linearGradient id="paint7_linear" x1="311.326" y1="57.89" x2="307.545" y2="88.5329" gradientUnits="userSpaceOnUse">
<stop stop-color="#3162AB"/>
<stop offset="1" stop-color="#2D3E79"/>
</linearGradient>
<linearGradient id="paint8_linear" x1="109.788" y1="79.1295" x2="241.615" y2="236.527" gradientUnits="userSpaceOnUse">
<stop stop-color="#9793E1"/>
<stop offset="1" stop-color="#5D58B7"/>
</linearGradient>
<linearGradient id="paint9_linear" x1="115.761" y1="170.196" x2="288.5" y2="224.745" gradientUnits="userSpaceOnUse">
<stop stop-color="#444B8C"/>
<stop offset="0.9964" stop-color="#26264F"/>
</linearGradient>
<linearGradient id="paint10_linear" x1="85.0951" y1="131.025" x2="172.587" y2="132.347" gradientUnits="userSpaceOnUse">
<stop stop-color="#FF9085"/>
<stop offset="1" stop-color="#FB6FBB"/>
</linearGradient>
<linearGradient id="paint11_linear" x1="144.745" y1="49.8512" x2="276.572" y2="207.249" gradientUnits="userSpaceOnUse">
<stop stop-color="white"/>
<stop offset="1" stop-color="#5D58B7"/>
</linearGradient>
<linearGradient id="paint12_linear" x1="183.896" y1="173.679" x2="269.84" y2="173.679" gradientUnits="userSpaceOnUse">
<stop stop-color="white"/>
<stop offset="1" stop-color="#5D58B7"/>
</linearGradient>
<linearGradient id="paint13_linear" x1="91.2123" y1="227.095" x2="130.772" y2="227.095" gradientUnits="userSpaceOnUse">
<stop stop-color="#FCB148"/>
<stop offset="0.0521" stop-color="#FDBA46"/>
<stop offset="0.1424" stop-color="#FFC244"/>
<stop offset="0.3183" stop-color="#FFC444"/>
<stop offset="0.4849" stop-color="#FDB946"/>
<stop offset="0.7754" stop-color="#F99C4D"/>
<stop offset="0.8658" stop-color="#F8924F"/>
<stop offset="1" stop-color="#F8924F"/>
</linearGradient>
<linearGradient id="paint14_linear" x1="111.175" y1="222.639" x2="113.261" y2="240.098" gradientUnits="userSpaceOnUse">
<stop stop-color="#FFDB44"/>
<stop offset="1" stop-color="#FEEF06"/>
</linearGradient>
<linearGradient id="paint15_linear" x1="111.083" y1="221.861" x2="111.724" y2="227.222" gradientUnits="userSpaceOnUse">
<stop stop-color="#FFDB44"/>
<stop offset="1" stop-color="#FEEF06"/>
</linearGradient>
<linearGradient id="paint16_linear" x1="111.685" y1="226.66" x2="111.047" y2="221.317" gradientUnits="userSpaceOnUse">
<stop offset="0.0036" stop-color="#F36F56"/>
<stop offset="0.3059" stop-color="#F99C4C"/>
<stop offset="0.545" stop-color="#FDB946"/>
<stop offset="0.6817" stop-color="#FFC444"/>
<stop offset="0.8038" stop-color="#FFC244"/>
<stop offset="0.8667" stop-color="#FEBA46"/>
<stop offset="0.916" stop-color="#FCAD49"/>
<stop offset="0.958" stop-color="#F99A4D"/>
<stop offset="0.9955" stop-color="#F58152"/>
<stop offset="1" stop-color="#F57E53"/>
</linearGradient>
<linearGradient id="paint17_linear" x1="86.4328" y1="223.09" x2="125.992" y2="223.09" gradientUnits="userSpaceOnUse">
<stop stop-color="#FCB148"/>
<stop offset="0.0521" stop-color="#FDBA46"/>
<stop offset="0.1424" stop-color="#FFC244"/>
<stop offset="0.3183" stop-color="#FFC444"/>
<stop offset="0.4849" stop-color="#FDB946"/>
<stop offset="0.7754" stop-color="#F99C4D"/>
<stop offset="0.8658" stop-color="#F8924F"/>
<stop offset="1" stop-color="#F8924F"/>
</linearGradient>
<linearGradient id="paint18_linear" x1="106.396" y1="218.633" x2="108.482" y2="236.092" gradientUnits="userSpaceOnUse">
<stop stop-color="#FFDB44"/>
<stop offset="1" stop-color="#FEEF06"/>
</linearGradient>
<linearGradient id="paint19_linear" x1="106.304" y1="217.855" x2="106.944" y2="223.217" gradientUnits="userSpaceOnUse">
<stop stop-color="#FFDB44"/>
<stop offset="1" stop-color="#FEEF06"/>
</linearGradient>
<linearGradient id="paint20_linear" x1="106.906" y1="222.655" x2="106.267" y2="217.312" gradientUnits="userSpaceOnUse">
<stop offset="0.0036" stop-color="#F36F56"/>
<stop offset="0.3059" stop-color="#F99C4C"/>
<stop offset="0.545" stop-color="#FDB946"/>
<stop offset="0.6817" stop-color="#FFC444"/>
<stop offset="0.8038" stop-color="#FFC244"/>
<stop offset="0.8667" stop-color="#FEBA46"/>
<stop offset="0.916" stop-color="#FCAD49"/>
<stop offset="0.958" stop-color="#F99A4D"/>
<stop offset="0.9955" stop-color="#F58152"/>
<stop offset="1" stop-color="#F57E53"/>
</linearGradient>
<linearGradient id="paint21_linear" x1="90.5567" y1="219.096" x2="130.116" y2="219.096" gradientUnits="userSpaceOnUse">
<stop stop-color="#FCB148"/>
<stop offset="0.0521" stop-color="#FDBA46"/>
<stop offset="0.1424" stop-color="#FFC244"/>
<stop offset="0.3183" stop-color="#FFC444"/>
<stop offset="0.4849" stop-color="#FDB946"/>
<stop offset="0.7754" stop-color="#F99C4D"/>
<stop offset="0.8658" stop-color="#F8924F"/>
<stop offset="1" stop-color="#F8924F"/>
</linearGradient>
<linearGradient id="paint22_linear" x1="110.518" y1="214.639" x2="112.604" y2="232.099" gradientUnits="userSpaceOnUse">
<stop stop-color="#FFDB44"/>
<stop offset="1" stop-color="#FEEF06"/>
</linearGradient>
<linearGradient id="paint23_linear" x1="110.428" y1="213.861" x2="111.068" y2="219.223" gradientUnits="userSpaceOnUse">
<stop stop-color="#FFDB44"/>
<stop offset="1" stop-color="#FEEF06"/>
</linearGradient>
<linearGradient id="paint24_linear" x1="111.03" y1="218.661" x2="110.392" y2="213.318" gradientUnits="userSpaceOnUse">
<stop offset="0.0036" stop-color="#F36F56"/>
<stop offset="0.3059" stop-color="#F99C4C"/>
<stop offset="0.545" stop-color="#FDB946"/>
<stop offset="0.6817" stop-color="#FFC444"/>
<stop offset="0.8038" stop-color="#FFC244"/>
<stop offset="0.8667" stop-color="#FEBA46"/>
<stop offset="0.916" stop-color="#FCAD49"/>
<stop offset="0.958" stop-color="#F99A4D"/>
<stop offset="0.9955" stop-color="#F58152"/>
<stop offset="1" stop-color="#F57E53"/>
</linearGradient>
<linearGradient id="paint25_linear" x1="93.0592" y1="215.09" x2="132.619" y2="215.09" gradientUnits="userSpaceOnUse">
<stop stop-color="#FCB148"/>
<stop offset="0.0521" stop-color="#FDBA46"/>
<stop offset="0.1424" stop-color="#FFC244"/>
<stop offset="0.3183" stop-color="#FFC444"/>
<stop offset="0.4849" stop-color="#FDB946"/>
<stop offset="0.7754" stop-color="#F99C4D"/>
<stop offset="0.8658" stop-color="#F8924F"/>
<stop offset="1" stop-color="#F8924F"/>
</linearGradient>
<linearGradient id="paint26_linear" x1="113.021" y1="210.634" x2="115.107" y2="228.093" gradientUnits="userSpaceOnUse">
<stop stop-color="#FFDB44"/>
<stop offset="1" stop-color="#FEEF06"/>
</linearGradient>
<linearGradient id="paint27_linear" x1="112.93" y1="209.855" x2="113.571" y2="215.217" gradientUnits="userSpaceOnUse">
<stop stop-color="#FFDB44"/>
<stop offset="1" stop-color="#FEEF06"/>
</linearGradient>
<linearGradient id="paint28_linear" x1="113.532" y1="214.655" x2="112.894" y2="209.312" gradientUnits="userSpaceOnUse">
<stop offset="0.0036" stop-color="#F36F56"/>
<stop offset="0.3059" stop-color="#F99C4C"/>
<stop offset="0.545" stop-color="#FDB946"/>
<stop offset="0.6817" stop-color="#FFC444"/>
<stop offset="0.8038" stop-color="#FFC244"/>
<stop offset="0.8667" stop-color="#FEBA46"/>
<stop offset="0.916" stop-color="#FCAD49"/>
<stop offset="0.958" stop-color="#F99A4D"/>
<stop offset="0.9955" stop-color="#F58152"/>
<stop offset="1" stop-color="#F57E53"/>
</linearGradient>
<linearGradient id="paint29_linear" x1="91.2123" y1="210.768" x2="130.772" y2="210.768" gradientUnits="userSpaceOnUse">
<stop stop-color="#FCB148"/>
<stop offset="0.0521" stop-color="#FDBA46"/>
<stop offset="0.1424" stop-color="#FFC244"/>
<stop offset="0.3183" stop-color="#FFC444"/>
<stop offset="0.4849" stop-color="#FDB946"/>
<stop offset="0.7754" stop-color="#F99C4D"/>
<stop offset="0.8658" stop-color="#F8924F"/>
<stop offset="1" stop-color="#F8924F"/>
</linearGradient>
<linearGradient id="paint30_linear" x1="111.175" y1="206.312" x2="113.261" y2="223.771" gradientUnits="userSpaceOnUse">
<stop stop-color="#FFDB44"/>
<stop offset="1" stop-color="#FEEF06"/>
</linearGradient>
<linearGradient id="paint31_linear" x1="111.083" y1="205.534" x2="111.724" y2="210.896" gradientUnits="userSpaceOnUse">
<stop stop-color="#FFDB44"/>
<stop offset="1" stop-color="#FEEF06"/>
</linearGradient>
<linearGradient id="paint32_linear" x1="111.685" y1="210.333" x2="111.047" y2="204.99" gradientUnits="userSpaceOnUse">
<stop offset="0.0036" stop-color="#F36F56"/>
<stop offset="0.3059" stop-color="#F99C4C"/>
<stop offset="0.545" stop-color="#FDB946"/>
<stop offset="0.6817" stop-color="#FFC444"/>
<stop offset="0.8038" stop-color="#FFC244"/>
<stop offset="0.8667" stop-color="#FEBA46"/>
<stop offset="0.916" stop-color="#FCAD49"/>
<stop offset="0.958" stop-color="#F99A4D"/>
<stop offset="0.9955" stop-color="#F58152"/>
<stop offset="1" stop-color="#F57E53"/>
</linearGradient>
<linearGradient id="paint33_linear" x1="86.4328" y1="206.763" x2="125.992" y2="206.763" gradientUnits="userSpaceOnUse">
<stop stop-color="#FCB148"/>
<stop offset="0.0521" stop-color="#FDBA46"/>
<stop offset="0.1424" stop-color="#FFC244"/>
<stop offset="0.3183" stop-color="#FFC444"/>
<stop offset="0.4849" stop-color="#FDB946"/>
<stop offset="0.7754" stop-color="#F99C4D"/>
<stop offset="0.8658" stop-color="#F8924F"/>
<stop offset="1" stop-color="#F8924F"/>
</linearGradient>
<linearGradient id="paint34_linear" x1="106.396" y1="202.307" x2="108.482" y2="219.766" gradientUnits="userSpaceOnUse">
<stop stop-color="#FFDB44"/>
<stop offset="1" stop-color="#FEEF06"/>
</linearGradient>
<linearGradient id="paint35_linear" x1="106.304" y1="201.528" x2="106.944" y2="206.89" gradientUnits="userSpaceOnUse">
<stop stop-color="#FFDB44"/>
<stop offset="1" stop-color="#FEEF06"/>
</linearGradient>
<linearGradient id="paint36_linear" x1="106.906" y1="206.328" x2="106.267" y2="200.985" gradientUnits="userSpaceOnUse">
<stop offset="0.0036" stop-color="#F36F56"/>
<stop offset="0.3059" stop-color="#F99C4C"/>
<stop offset="0.545" stop-color="#FDB946"/>
<stop offset="0.6817" stop-color="#FFC444"/>
<stop offset="0.8038" stop-color="#FFC244"/>
<stop offset="0.8667" stop-color="#FEBA46"/>
<stop offset="0.916" stop-color="#FCAD49"/>
<stop offset="0.958" stop-color="#F99A4D"/>
<stop offset="0.9955" stop-color="#F58152"/>
<stop offset="1" stop-color="#F57E53"/>
</linearGradient>
<linearGradient id="paint37_linear" x1="90.5567" y1="202.769" x2="130.116" y2="202.769" gradientUnits="userSpaceOnUse">
<stop stop-color="#FCB148"/>
<stop offset="0.0521" stop-color="#FDBA46"/>
<stop offset="0.1424" stop-color="#FFC244"/>
<stop offset="0.3183" stop-color="#FFC444"/>
<stop offset="0.4849" stop-color="#FDB946"/>
<stop offset="0.7754" stop-color="#F99C4D"/>
<stop offset="0.8658" stop-color="#F8924F"/>
<stop offset="1" stop-color="#F8924F"/>
</linearGradient>
<linearGradient id="paint38_linear" x1="110.518" y1="198.313" x2="112.604" y2="215.772" gradientUnits="userSpaceOnUse">
<stop stop-color="#FFDB44"/>
<stop offset="1" stop-color="#FEEF06"/>
</linearGradient>
<linearGradient id="paint39_linear" x1="110.428" y1="197.534" x2="111.068" y2="202.896" gradientUnits="userSpaceOnUse">
<stop stop-color="#FFDB44"/>
<stop offset="1" stop-color="#FEEF06"/>
</linearGradient>
<linearGradient id="paint40_linear" x1="111.03" y1="202.334" x2="110.392" y2="196.991" gradientUnits="userSpaceOnUse">
<stop offset="0.0036" stop-color="#F36F56"/>
<stop offset="0.3059" stop-color="#F99C4C"/>
<stop offset="0.545" stop-color="#FDB946"/>
<stop offset="0.6817" stop-color="#FFC444"/>
<stop offset="0.8038" stop-color="#FFC244"/>
<stop offset="0.8667" stop-color="#FEBA46"/>
<stop offset="0.916" stop-color="#FCAD49"/>
<stop offset="0.958" stop-color="#F99A4D"/>
<stop offset="0.9955" stop-color="#F58152"/>
<stop offset="1" stop-color="#F57E53"/>
</linearGradient>
<linearGradient id="paint41_linear" x1="88.4117" y1="198.763" x2="127.971" y2="198.763" gradientUnits="userSpaceOnUse">
<stop stop-color="#FCB148"/>
<stop offset="0.0521" stop-color="#FDBA46"/>
<stop offset="0.1424" stop-color="#FFC244"/>
<stop offset="0.3183" stop-color="#FFC444"/>
<stop offset="0.4849" stop-color="#FDB946"/>
<stop offset="0.7754" stop-color="#F99C4D"/>
<stop offset="0.8658" stop-color="#F8924F"/>
<stop offset="1" stop-color="#F8924F"/>
</linearGradient>
<linearGradient id="paint42_linear" x1="108.374" y1="194.307" x2="110.46" y2="211.766" gradientUnits="userSpaceOnUse">
<stop stop-color="#FFDB44"/>
<stop offset="1" stop-color="#FEEF06"/>
</linearGradient>
<linearGradient id="paint43_linear" x1="108.282" y1="193.528" x2="108.923" y2="198.89" gradientUnits="userSpaceOnUse">
<stop stop-color="#FFDB44"/>
<stop offset="1" stop-color="#FEEF06"/>
</linearGradient>
<linearGradient id="paint44_linear" x1="108.885" y1="198.328" x2="108.246" y2="192.985" gradientUnits="userSpaceOnUse">
<stop offset="0.0036" stop-color="#F36F56"/>
<stop offset="0.3059" stop-color="#F99C4C"/>
<stop offset="0.545" stop-color="#FDB946"/>
<stop offset="0.6817" stop-color="#FFC444"/>
<stop offset="0.8038" stop-color="#FFC244"/>
<stop offset="0.8667" stop-color="#FEBA46"/>
<stop offset="0.916" stop-color="#FCAD49"/>
<stop offset="0.958" stop-color="#F99A4D"/>
<stop offset="0.9955" stop-color="#F58152"/>
<stop offset="1" stop-color="#F57E53"/>
</linearGradient>
<linearGradient id="paint45_linear" x1="126.462" y1="197.786" x2="149.391" y2="230.023" gradientUnits="userSpaceOnUse">
<stop stop-color="#FCB148"/>
<stop offset="0.0521" stop-color="#FDBA46"/>
<stop offset="0.1424" stop-color="#FFC244"/>
<stop offset="0.3183" stop-color="#FFC444"/>
<stop offset="0.4849" stop-color="#FDB946"/>
<stop offset="0.7754" stop-color="#F99C4D"/>
<stop offset="0.8658" stop-color="#F8924F"/>
<stop offset="1" stop-color="#F8924F"/>
</linearGradient>
<linearGradient id="paint46_linear" x1="141.663" y1="211.469" x2="128.646" y2="223.286" gradientUnits="userSpaceOnUse">
<stop stop-color="#FFDB44"/>
<stop offset="1" stop-color="#FEEF06"/>
</linearGradient>
<linearGradient id="paint47_linear" x1="142.245" y1="210.944" x2="138.247" y2="214.573" gradientUnits="userSpaceOnUse">
<stop stop-color="#FFDB44"/>
<stop offset="1" stop-color="#FEEF06"/>
</linearGradient>
<linearGradient id="paint48_linear" x1="138.683" y1="214.216" x2="142.666" y2="210.6" gradientUnits="userSpaceOnUse">
<stop offset="0.0036" stop-color="#F36F56"/>
<stop offset="0.3059" stop-color="#F99C4C"/>
<stop offset="0.545" stop-color="#FDB946"/>
<stop offset="0.6817" stop-color="#FFC444"/>
<stop offset="0.8038" stop-color="#FFC244"/>
<stop offset="0.8667" stop-color="#FEBA46"/>
<stop offset="0.916" stop-color="#FCAD49"/>
<stop offset="0.958" stop-color="#F99A4D"/>
<stop offset="0.9955" stop-color="#F58152"/>
<stop offset="1" stop-color="#F57E53"/>
</linearGradient>
</defs>
</svg>
