<svg width="15" height="13" viewBox="0 0 15 13" fill="none" xmlns="http://www.w3.org/2000/svg">
<path d="M13.6607 12.3929C13.9979 12.3929 14.29 12.2816 14.5384 12.0618L10.2886 7.81187C10.1867 7.88489 10.0878 7.95588 9.99449 8.0234C9.67646 8.25771 9.41834 8.44056 9.22013 8.57158C9.02196 8.7029 8.75828 8.83675 8.42914 8.9734C8.09978 9.11022 7.79294 9.17842 7.5083 9.17842H7.49996H7.49163C7.20696 9.17842 6.90012 9.11025 6.57079 8.9734C6.24145 8.83675 5.97778 8.7029 5.77979 8.57158C5.58162 8.44056 5.32363 8.25774 5.00544 8.0234C4.91677 7.95839 4.81843 7.88707 4.71211 7.81073L0.461548 12.0618C0.709889 12.2816 1.00224 12.3929 1.33939 12.3929H13.6607Z" fill="white"/>
<path d="M0.845514 5.13568C0.52751 4.92367 0.245509 4.68085 0 4.40735V10.8732L3.7457 7.12753C2.99635 6.60437 2.03085 5.94119 0.845514 5.13568Z" fill="white"/>
<path d="M14.163 5.13568C13.0229 5.90736 12.0539 6.57169 11.2559 7.12902L15 10.8734V4.40735C14.76 4.67535 14.481 4.918 14.163 5.13568Z" fill="white"/>
<path d="M13.6612 0.607178H1.33993C0.910083 0.607178 0.579606 0.752331 0.348094 1.04234C0.116393 1.33248 0.000732422 1.69534 0.000732422 2.1305C0.000732422 2.482 0.15422 2.86286 0.461058 3.27319C0.767897 3.68335 1.0944 4.00552 1.4404 4.23986C1.63008 4.37388 2.20209 4.77154 3.15643 5.43271C3.6716 5.78971 4.11962 6.10088 4.50462 6.3694C4.83278 6.59805 5.11579 6.79607 5.34945 6.96039C5.37628 6.97921 5.41846 7.00939 5.47445 7.04942C5.53478 7.09275 5.61111 7.14773 5.70529 7.21573C5.88663 7.34689 6.03729 7.45291 6.15728 7.5339C6.2771 7.61492 6.42229 7.70542 6.5926 7.80591C6.76278 7.90626 6.9233 7.98173 7.07395 8.03192C7.22464 8.08208 7.36412 8.10724 7.49245 8.10724H7.50078H7.50912C7.63741 8.10724 7.77693 8.08208 7.92764 8.03192C8.07827 7.98173 8.23864 7.90643 8.40896 7.80591C8.57911 7.70542 8.72411 7.61473 8.84431 7.5339C8.9643 7.45291 9.11496 7.34692 9.29633 7.21573C9.39032 7.14773 9.46665 7.09272 9.52697 7.04956C9.58299 7.00936 9.62515 6.97938 9.65214 6.96039C9.83417 6.83373 10.1178 6.63653 10.4992 6.37172C11.1932 5.88955 12.2152 5.17988 13.5696 4.23986C13.9769 3.95536 14.3172 3.61203 14.5907 3.21036C14.8637 2.8087 15.0006 2.38737 15.0006 1.94651C15.0006 1.57818 14.8679 1.26301 14.603 1.00051C14.3379 0.738334 14.0239 0.607178 13.6612 0.607178Z" fill="white"/>
</svg>
