<svg width="36" height="36" viewBox="0 0 36 36" fill="none" xmlns="http://www.w3.org/2000/svg">
<g clip-path="url(#clip0)">
<path d="M30.9141 33.8828L16.7549 26.3858C16.3859 26.1901 15.9359 26.2171 15.5871 26.4533L4.76012 33.9503C4.35512 34.2315 4.17962 34.7423 4.32812 35.2125C4.47212 35.6783 4.90862 36 5.39912 36H30.3853C30.9006 36 31.3528 35.649 31.4766 35.145C31.6026 34.6433 31.3686 34.1235 30.9141 33.8828Z" fill="#FFB83A"/>
<path d="M35.6527 31.7452L32.3227 16.7535C32.2417 16.3867 31.983 16.0875 31.6342 15.9502C31.2832 15.813 30.8895 15.8602 30.5835 16.0717L19.7542 23.5687C19.4302 23.7937 19.248 24.1695 19.2727 24.5587C19.2952 24.9525 19.5225 25.3035 19.869 25.4857L34.026 32.9827C34.1925 33.0705 34.3725 33.1155 34.5525 33.1155C34.7932 33.1155 35.034 33.039 35.2342 32.8837C35.583 32.6182 35.7472 32.175 35.6527 31.7452Z" fill="#FFB83A"/>
<path d="M27.8182 14.2897C27.6697 13.8195 27.2355 13.5 26.7427 13.5H16.4738C14.6063 16.8818 11.8433 20.115 10.707 21.3795C10.068 22.0905 9.15226 22.5 8.19601 22.5C7.23976 22.5 6.32401 22.0905 5.68501 21.3795C5.24626 20.8912 4.56676 20.1105 3.78826 19.143L1.06576 31.3965C0.966763 31.8488 1.15351 32.3145 1.53601 32.5732C1.72501 32.7015 1.94551 32.7645 2.16376 32.7645C2.38876 32.7645 2.61151 32.6992 2.80501 32.5642L27.3817 15.5475C27.789 15.2707 27.9622 14.76 27.8182 14.2897Z" fill="#FFB83A"/>
<path d="M8.19604 0C3.85354 0 0.321045 3.5325 0.321045 7.875C0.321045 11.916 6.63904 19.0732 7.35904 19.8765C7.57279 20.1127 7.87654 20.25 8.19604 20.25C8.51554 20.25 8.81929 20.1127 9.03304 19.8765C9.75304 19.0732 16.071 11.916 16.071 7.875C16.071 3.5325 12.5385 0 8.19604 0ZM8.19604 11.25C6.33304 11.25 4.82104 9.738 4.82104 7.875C4.82104 6.012 6.33304 4.5 8.19604 4.5C10.059 4.5 11.571 6.012 11.571 7.875C11.571 9.738 10.059 11.25 8.19604 11.25Z" fill="#FFB83A"/>
</g>
<defs>
<clipPath id="clip0">
<rect width="36" height="36" fill="white"/>
</clipPath>
</defs>
</svg>
