<svg width="23" height="23" viewBox="0 0 23 23" fill="none" xmlns="http://www.w3.org/2000/svg">
<g clip-path="url(#clip0)">
<path d="M19.7508 21.6473L10.7046 16.8576C10.4689 16.7325 10.1814 16.7498 9.95856 16.9007L3.04131 21.6905C2.78256 21.8701 2.67044 22.1965 2.76531 22.4969C2.85731 22.7945 3.13619 23 3.44956 23H19.413C19.7422 23 20.0311 22.7758 20.1102 22.4538C20.1907 22.1332 20.0412 21.8011 19.7508 21.6473Z" fill="#5D58B7"/>
<path d="M22.7781 20.2816L20.6506 10.7035C20.5988 10.4692 20.4335 10.278 20.2107 10.1904C19.9864 10.1027 19.7349 10.1329 19.5394 10.268L12.6207 15.0577C12.4137 15.2015 12.2973 15.4416 12.3131 15.6902C12.3274 15.9418 12.4726 16.1661 12.694 16.2825L21.7387 21.0723C21.8451 21.1283 21.9601 21.1571 22.0751 21.1571C22.2289 21.1571 22.3827 21.1082 22.5107 21.009C22.7335 20.8394 22.8384 20.5562 22.7781 20.2816Z" fill="#5D58B7"/>
<path d="M17.7728 9.12956C17.6779 8.82912 17.4005 8.625 17.0857 8.625H10.5249C9.3318 10.7856 7.56655 12.8512 6.84062 13.6591C6.43237 14.1134 5.8473 14.375 5.23637 14.375C4.62543 14.375 4.04037 14.1134 3.63212 13.6591C3.3518 13.3472 2.91768 12.8484 2.42031 12.2303L0.680931 20.0589C0.617681 20.3478 0.736994 20.6454 0.981369 20.8107C1.10212 20.8926 1.24299 20.9329 1.38243 20.9329C1.52618 20.9329 1.66849 20.8912 1.79212 20.8049L17.4939 9.93312C17.7541 9.75631 17.8648 9.43 17.7728 9.12956Z" fill="#5D58B7"/>
<path d="M5.23633 0C2.46195 0 0.205078 2.25688 0.205078 5.03125C0.205078 7.613 4.24158 12.1857 4.70158 12.6989C4.83814 12.8498 5.0322 12.9375 5.23633 12.9375C5.44045 12.9375 5.63452 12.8498 5.77108 12.6989C6.23108 12.1857 10.2676 7.613 10.2676 5.03125C10.2676 2.25688 8.0107 0 5.23633 0ZM5.23633 7.1875C4.04608 7.1875 3.08008 6.2215 3.08008 5.03125C3.08008 3.841 4.04608 2.875 5.23633 2.875C6.42658 2.875 7.39258 3.841 7.39258 5.03125C7.39258 6.2215 6.42658 7.1875 5.23633 7.1875Z" fill="#5D58B7"/>
</g>
<defs>
<clipPath id="clip0">
<rect width="23" height="23" fill="white"/>
</clipPath>
</defs>
</svg>
