<svg width="23" height="23" viewBox="0 0 23 23" fill="none" xmlns="http://www.w3.org/2000/svg">
<g clip-path="url(#clip0)">
<path d="M5.98102 1.72375H2.02565C1.34234 1.72375 0.788452 2.27765 0.788452 2.96095V6.43602H5.98102V1.72375Z" fill="#5D58B7"/>
<path d="M0.788452 19.0286H7.41453V16.7589C7.41453 16.3191 7.77115 15.9625 8.21092 15.9625C8.65069 15.9625 9.00731 16.3191 9.00731 16.7589V19.825C9.00731 20.2648 8.65069 20.6214 8.21092 20.6214H0.788452V21.7627C0.788452 22.446 1.34234 22.9999 2.02565 22.9999H10.9956V12.4186H0.788452V19.0286Z" fill="#5D58B7"/>
<path d="M20.9742 1.72375H19.2845C19.5021 2.26196 19.6231 2.84914 19.6231 3.46427C19.6231 4.23837 19.4308 4.9912 19.0715 5.66176H22.2114V2.96095C22.2114 2.27765 21.6575 1.72375 20.9742 1.72375Z" fill="#5D58B7"/>
<path d="M17.917 7.24961C17.6726 7.63164 17.4812 8.04337 17.346 8.48083L16.6348 10.7812C16.4018 11.5346 15.7154 12.0408 14.9259 12.0408C14.1367 12.0403 13.4506 11.5333 13.2184 10.7793L12.4738 8.36137C12.2672 7.69089 11.9122 7.05362 11.4471 6.51868C10.7109 5.67203 10.3054 4.58719 10.3054 3.46427C10.3054 2.84906 10.4263 2.26188 10.644 1.72375H7.5738V7.23241C7.5738 7.67218 7.21718 8.0288 6.77741 8.0288H0.788452V10.8258H11.792C12.2317 10.8258 12.5884 11.1824 12.5884 11.6222V14.0114H16.8889C17.3287 14.0114 17.6853 14.3679 17.6853 14.8078V17.9137H22.2114V7.25455H18.0038C17.9745 7.25455 17.9455 7.25264 17.917 7.24961Z" fill="#5D58B7"/>
<path d="M16.0925 18.7101V15.6041H12.5884V22.9999H20.9742C21.6575 22.9999 22.2114 22.446 22.2114 21.7627V19.5065H16.8889C16.4491 19.5065 16.0925 19.1498 16.0925 18.7101Z" fill="#5D58B7"/>
<path d="M13.6155 8.00981L14.3602 10.4277C14.4368 10.6764 14.6665 10.8461 14.9266 10.8462C14.9267 10.8462 14.9268 10.8462 14.9268 10.8462C15.187 10.8462 15.4167 10.6768 15.4935 10.4284L16.2047 8.12799C16.4786 7.24208 16.9429 6.44314 17.5405 5.77967C18.0926 5.1662 18.4286 4.3546 18.4286 3.46431C18.4286 1.55106 16.8776 0 14.9643 0C13.0511 0 11.5 1.55106 11.5 3.46431C11.5 4.33318 11.8201 5.12702 12.3487 5.73491C12.9227 6.39512 13.3581 7.17375 13.6155 8.00981ZM14.9829 1.72379C15.9029 1.72379 16.6484 2.46946 16.6484 3.38929C16.6484 4.3092 15.9029 5.05479 14.9829 5.05479C14.0631 5.05479 13.3174 4.3092 13.3174 3.38929C13.3174 2.46946 14.0631 1.72379 14.9829 1.72379Z" fill="#5D58B7"/>
</g>
<defs>
<clipPath id="clip0">
<rect width="23" height="23" fill="white"/>
</clipPath>
</defs>
</svg>
