<svg width="36" height="36" viewBox="0 0 36 36" fill="none" xmlns="http://www.w3.org/2000/svg">
<g clip-path="url(#clip0)">
<path d="M24.6472 2.33435C25.1958 2.42661 28.4381 2.96682 28.6587 3.00353V0H7.34106V5.09718C9.69504 5.48951 8.91942 5.36026 11.0942 5.72259C18.9493 3.75882 22.5401 2.86306 24.6472 2.33435Z" fill="#FFB83A"/>
<path d="M11.7804 29.0407C11.2672 29.1692 11.4648 29.1671 10.9185 29.0753C9.09448 28.7711 9.89283 28.9045 7.34106 28.4788V36H28.6587V26.3852C26.3046 25.9927 27.0804 26.1219 24.9055 25.7598L11.7804 29.0407ZM21.3881 32.7529H14.6117V30.6353H21.3881V32.7529Z" fill="#FFB83A"/>
<path d="M6.096 16.6234C7.788 15.1192 6.84353 15.9592 10.1647 13.0065C10.1647 12.1749 10.1647 9.04333 10.1647 7.7145C8.54315 7.44429 2.30612 6.4053 0 6.02039V11.882C3.69551 14.7558 -1.32508 10.8511 6.096 16.6234Z" fill="#FFB83A"/>
<path d="M34.4922 6.12217C34.4362 6.11222 34.7789 5.84653 29.9258 9.94876L31.2084 15.0819C36.4609 14.0952 31.9036 14.9508 35.9999 14.1834C35.9999 13.4687 35.9999 7.37836 35.9999 6.37347L34.4922 6.12217Z" fill="#FFB83A"/>
<path d="M10.1647 26.803C10.1647 25.7534 10.1647 17.0786 10.1647 15.84C6.89224 18.7489 7.74141 17.9943 6.18635 19.3765C1.78779 15.9541 4.17176 17.8101 0 14.5645V25.1089C5.5668 26.036 9.84798 26.7506 10.1647 26.803Z" fill="#FFB83A"/>
<path d="M17.0117 6.30286L12.2957 7.60521C12.2741 7.61086 12.2823 7.02815 12.2823 18.4299L17.0117 14.4254C17.0117 13.6991 17.0117 7.1106 17.0117 6.30286Z" fill="#FFB83A"/>
<path d="M23.7113 4.75126L19.1294 5.77338V14.3026L23.7176 17.7995C23.7176 4.05526 23.7213 4.74907 23.7113 4.75126Z" fill="#FFB83A"/>
<path d="M12.2825 26.7325C12.2912 26.7303 23.7102 23.8756 23.7178 23.8737C23.7178 23.0749 23.7178 21.0839 23.7178 20.2857L18.0531 16.3539L12.2825 21.2922V26.7325Z" fill="#FFB83A"/>
<path d="M30.9762 17.2793C30.6261 17.676 25.3074 23.6859 25.3439 23.6859C25.3521 23.6859 34.9598 25.2883 36 25.4619C36 24.4089 36 17.5093 36 16.3376C34.7001 16.5812 35.1905 16.4899 30.9762 17.2793Z" fill="#FFB83A"/>
<path d="M25.8352 19.9058C29.1585 16.1397 28.4688 16.9213 29.2615 16.0228C28.5104 13.0179 28.7749 14.076 28.1237 11.4727L25.8352 13.4089V19.9058Z" fill="#FFB83A"/>
<path d="M25.8352 4.67932V10.6356C29.6194 7.43332 30.2387 6.91125 31.7173 5.65979C25.4794 4.6208 27.4708 4.95052 25.8352 4.67932Z" fill="#FFB83A"/>
</g>
<defs>
<clipPath id="clip0">
<rect width="36" height="36" fill="white"/>
</clipPath>
</defs>
</svg>
