<svg width="15" height="13" viewBox="0 0 15 13" fill="none" xmlns="http://www.w3.org/2000/svg">
<path d="M13.6606 12.393C13.9977 12.393 14.2899 12.2817 14.5383 12.0618L10.2885 7.81193C10.1866 7.88495 10.0877 7.95595 9.99437 8.02346C9.67634 8.25777 9.41822 8.44062 9.22001 8.57164C9.02183 8.70296 8.75816 8.83681 8.42902 8.97346C8.09966 9.11029 7.79282 9.17848 7.50818 9.17848H7.49984H7.49151C7.20684 9.17848 6.9 9.11031 6.57067 8.97346C6.24133 8.83681 5.97766 8.70296 5.77967 8.57164C5.58149 8.44062 5.32351 8.2578 5.00532 8.02346C4.91665 7.95845 4.81831 7.88713 4.71199 7.81079L0.461426 12.0618C0.709767 12.2817 1.00212 12.393 1.33927 12.393H13.6606Z" fill="#FFB83A"/>
<path d="M0.845514 5.1358C0.52751 4.92379 0.245509 4.68098 0 4.40747V10.8734L3.7457 7.12765C2.99635 6.6045 2.03085 5.94131 0.845514 5.1358Z" fill="#FFB83A"/>
<path d="M14.163 5.1358C13.0229 5.90748 12.0539 6.57182 11.2559 7.12915L15 10.8735V4.40747C14.76 4.67547 14.481 4.91812 14.163 5.1358Z" fill="#FFB83A"/>
<path d="M13.6609 0.607178H1.33969C0.909839 0.607178 0.579361 0.752331 0.34785 1.04234C0.116149 1.33248 0.000488281 1.69534 0.000488281 2.1305C0.000488281 2.482 0.153976 2.86286 0.460814 3.27319C0.767653 3.68335 1.09415 4.00552 1.44015 4.23986C1.62984 4.37388 2.20185 4.77154 3.15619 5.43271C3.67136 5.78971 4.11938 6.10088 4.50437 6.3694C4.83254 6.59805 5.11555 6.79607 5.34921 6.96039C5.37603 6.97921 5.41822 7.00939 5.47421 7.04942C5.53453 7.09275 5.61087 7.14773 5.70504 7.21573C5.88639 7.34689 6.03704 7.45291 6.15703 7.5339C6.27686 7.61492 6.42204 7.70542 6.59236 7.80591C6.76254 7.90626 6.92305 7.98173 7.07371 8.03192C7.22439 8.08208 7.36388 8.10724 7.4922 8.10724H7.50054H7.50887C7.63717 8.10724 7.77668 8.08208 7.92739 8.03192C8.07802 7.98173 8.2384 7.90643 8.40872 7.80591C8.57887 7.70542 8.72386 7.61473 8.84407 7.5339C8.96406 7.45291 9.11472 7.34692 9.29609 7.21573C9.39007 7.14773 9.46641 7.09272 9.52673 7.04956C9.58275 7.00936 9.62491 6.97938 9.65189 6.96039C9.83392 6.83373 10.1176 6.63653 10.499 6.37172C11.1929 5.88955 12.2149 5.17988 13.5693 4.23986C13.9766 3.95536 14.3169 3.61203 14.5905 3.21036C14.8635 2.8087 15.0003 2.38737 15.0003 1.94651C15.0003 1.57818 14.8676 1.26301 14.6028 1.00051C14.3376 0.738334 14.0237 0.607178 13.6609 0.607178Z" fill="#FFB83A"/>
</svg>
