<svg width="23" height="23" viewBox="0 0 23 23" fill="none" xmlns="http://www.w3.org/2000/svg">
<path d="M16.196 20.125C15.0762 20.125 13.9912 20.4535 13.059 21.0748L12.8297 21.2276C12.9411 21.3393 13.05 21.454 13.1546 21.5733L13.4597 21.9219H20.3353L20.1947 21.7814C19.1267 20.7133 17.7068 20.125 16.196 20.125Z" fill="#FFA300"/>
<path d="M2.8646 21.7217L2.66443 21.9219H12.4926C11.2298 20.553 9.45518 19.7656 7.58751 19.7656C5.80321 19.7656 4.12601 20.4607 2.8646 21.7217Z" fill="#FFA300"/>
<path d="M17.25 8.26562C18.6393 8.26562 19.7656 7.13934 19.7656 5.75C19.7656 4.36066 18.6393 3.23438 17.25 3.23438C15.8607 3.23438 14.7344 4.36066 14.7344 5.75C14.7344 7.13934 15.8607 8.26562 17.25 8.26562Z" fill="#FFA300"/>
<path d="M17.6094 1.07812H16.8906V2.51562H17.6094V1.07812Z" fill="#FFA300"/>
<path d="M14.2 2.19189L13.6919 2.7002L14.7085 3.71651L15.2166 3.20821L14.2 2.19189Z" fill="#FFA300"/>
<path d="M14.0156 5.39062H12.5781V6.10938H14.0156V5.39062Z" fill="#FFA300"/>
<path d="M14.7086 7.78298L13.6921 8.79944L14.2004 9.30767L15.2168 8.29121L14.7086 7.78298Z" fill="#FFA300"/>
<path d="M17.6094 8.98438H16.8906V10.4219H17.6094V8.98438Z" fill="#FFA300"/>
<path d="M19.7903 7.78186L19.2821 8.29016L20.2987 9.30647L20.8068 8.79817L19.7903 7.78186Z" fill="#FFA300"/>
<path d="M21.9219 5.39062H20.4844V6.10938H21.9219V5.39062Z" fill="#FFA300"/>
<path d="M20.2993 2.19253L19.2828 3.20898L19.7911 3.71721L20.8075 2.70076L20.2993 2.19253Z" fill="#FFA300"/>
<path d="M12.3424 16.9912L13.2969 17.4156V15.9612L11.6053 14.2696L12.1135 13.7615L13.2969 14.9449V11.1406H14.0156V14.9449L15.199 13.7615L15.7072 14.2696L14.0156 15.9612V17.4156L14.9701 16.9912C15.9185 16.57 16.5312 15.627 16.5312 14.5895C16.5312 14.0526 16.3695 13.5347 16.0641 13.0934L13.6562 9.61572L11.2484 13.0934C10.9426 13.5351 10.7812 14.0526 10.7812 14.5895C10.7812 15.627 11.394 16.57 12.3424 16.9912Z" fill="#FFA300"/>
<path d="M4.5177 14.3736L5.75 15.1577V19.2848C5.98647 19.2244 6.22581 19.1762 6.46875 19.1396V15.1577L7.70105 14.3736C8.95455 13.5757 9.70312 12.2123 9.70312 10.7266C9.70312 9.89143 9.46342 9.07925 9.00953 8.37811L9.00737 8.37487L7.24284 5.58253L6.11369 3.88879L3.20922 8.37775C2.75533 9.07925 2.51562 9.89108 2.51562 10.7266C2.51562 12.2123 3.2642 13.5757 4.5177 14.3736ZM4.05842 8.5197L4.56658 8.01154L5.75 9.19497V5.39062H6.46875V9.19497L7.65217 8.01154L8.16033 8.5197L6.46875 10.2113V12.4293L7.65217 11.2459L8.16033 11.7541L6.46875 13.4457V15.0937H5.75V13.4457L4.05842 11.7541L4.56658 11.2459L5.75 12.4293V10.2113L4.05842 8.5197Z" fill="#FFA300"/>
<path d="M13.2969 20.1085C13.5308 19.9888 13.7702 19.8831 14.0156 19.7937V17.6094H13.2969V20.1085Z" fill="#FFA300"/>
<path d="M20.5828 12.9375C20.4581 12.9375 20.3388 12.9576 20.2235 12.9875V12.9375C20.2235 11.9453 19.4188 11.1406 18.4266 11.1406C17.8361 11.1406 17.3165 11.4296 16.9891 11.8691C16.6685 11.4385 16.1633 11.1543 15.5879 11.1428L16.6549 12.6841C17.0441 13.2462 17.25 13.9053 17.25 14.5895C17.25 15.0172 17.1609 15.4287 17.0092 15.8125H20.5828C21.3767 15.8125 22.0203 15.1689 22.0203 14.375C22.0203 13.5811 21.3767 12.9375 20.5828 12.9375Z" fill="#FFA300"/>
<path d="M4.05375 5.75L6.10506 2.57995L7.8412 5.18398L8.19878 5.75H9.70312C10.497 5.75 11.1406 5.10636 11.1406 4.3125C11.1406 3.51864 10.497 2.875 9.70312 2.875C9.57627 2.875 9.45516 2.89584 9.338 2.92675C9.33908 2.9095 9.34375 2.89297 9.34375 2.875C9.34375 1.88277 8.53911 1.07812 7.54688 1.07812C6.95642 1.07812 6.43677 1.36706 6.10938 1.80658C5.78198 1.36706 5.26233 1.07812 4.67188 1.07812C3.67964 1.07812 2.875 1.88277 2.875 2.875C2.875 2.89297 2.87967 2.9095 2.88075 2.92675C2.76359 2.89584 2.64248 2.875 2.51562 2.875C1.72177 2.875 1.07812 3.51864 1.07812 4.3125C1.07812 5.10636 1.72177 5.75 2.51562 5.75H4.05375Z" fill="#FFA300"/>
</svg>
