<svg width="23" height="23" viewBox="0 0 23 23" fill="none" xmlns="http://www.w3.org/2000/svg">
<g clip-path="url(#clip0)">
<path d="M14.2402 4.04297C12.3826 4.04297 10.8711 5.55445 10.8711 7.4121C10.8711 8.13 11.0942 8.81501 11.5153 9.3941L14.2402 13.0271L16.9375 9.43161C17.3771 8.84529 17.6094 8.14711 17.6094 7.4121C17.6094 5.55445 16.0979 4.04297 14.2402 4.04297ZM14.2402 9.43358C13.1255 9.43358 12.2187 8.52679 12.2187 7.4121C12.2187 6.29741 13.1255 5.39062 14.2402 5.39062C15.3549 5.39062 16.2617 6.29741 16.2617 7.4121C16.2617 8.52679 15.3549 9.43358 14.2402 9.43358Z" fill="#FFAD1B"/>
<path d="M14.2402 0C9.41023 0 5.48047 3.92976 5.48047 8.75975C5.48047 13.599 9.43422 17.5195 14.2402 17.5195C19.0702 17.5195 23 13.5897 23 8.75975C23 3.92976 19.0702 0 14.2402 0ZM14.7792 14.5544C14.5101 14.914 13.9703 14.914 13.7013 14.5544C11.7029 11.8899 9.52344 9.71344 9.52344 7.4121C9.52344 4.81153 11.6397 2.69531 14.2402 2.69531C16.8408 2.69531 18.957 4.81153 18.957 7.4121C18.957 9.38259 18.2109 9.97974 14.7792 14.5544Z" fill="#FFAD1B"/>
<path d="M5.14678 13.1426C5.13313 13.1595 5.12333 13.1784 5.11026 13.1957C4.52709 13.9742 4.62057 15.0199 5.08484 15.6375C5.73364 16.4995 6.50028 17.2661 7.36228 17.9149C8.01374 18.4058 9.0893 18.4655 9.85293 17.8513C7.80171 16.8575 6.13969 15.1942 5.14678 13.1426Z" fill="#FFAD1B"/>
<path d="M6.55199 18.9916C5.58931 18.2671 4.73319 17.411 4.00869 16.4482C3.96197 16.3863 3.93012 16.3177 3.88835 16.2534L0.617502 19.5227C-1.26598 21.4062 1.58727 24.27 3.47601 22.3812L6.74488 19.1139C6.68096 19.0722 6.61344 19.0379 6.55199 18.9916Z" fill="#FFAD1B"/>
</g>
<defs>
<clipPath id="clip0">
<rect width="23" height="23" fill="white"/>
</clipPath>
</defs>
</svg>
