<svg width="38" height="39" viewBox="0 0 38 39" fill="none" xmlns="http://www.w3.org/2000/svg">
<path d="M33.2538 16.5076C33.2549 21.2766 31.1949 25.6685 27.8107 28.7231C24.1009 32.0716 19.57 34.7703 16.9269 39C14.3455 34.8953 9.8926 32.3533 6.11623 29.2937C3.14102 26.8831 1.03368 23.4723 0.290544 19.5736C-0.936476 13.1363 1.78798 6.58805 7.23326 2.88662C12.6785 -0.814823 19.8137 -0.968588 25.4156 2.49478L20.6923 9.13065C19.4493 8.44379 18.0499 8.0843 16.6273 8.08643C11.9424 8.08643 8.14443 11.8567 8.14443 16.5076C8.14443 21.1585 11.9424 24.9288 16.6273 24.9288C21.3123 24.9288 25.1102 21.1585 25.1102 16.5076V12.8023H21.0384C20.7868 12.8041 20.5553 12.6657 20.4394 12.4439C20.3234 12.2222 20.3425 11.9546 20.4887 11.7513L21.8324 9.86498L26.5354 3.25605L28.6527 0.278325C28.7806 0.103722 28.9849 0.000415726 29.2024 0.000415726C29.4198 0.000415726 29.6242 0.103722 29.7521 0.278325L37.8753 11.7513C38.0216 11.9546 38.0406 12.2222 37.9247 12.4439C37.8087 12.6657 37.5773 12.8041 37.3256 12.8023H33.2538V16.5076Z" fill="#F16063"/>
<path d="M33.2538 16.5076C33.2549 21.2766 31.1949 25.6685 27.8107 28.7231C24.1009 32.0716 19.57 34.7703 16.9269 39C14.3455 34.8953 9.8926 32.3533 6.11623 29.2937C3.14102 26.8831 1.03368 23.4723 0.290544 19.5736C-0.936476 13.1363 1.78798 6.58805 7.23326 2.88662C12.6785 -0.814823 19.8137 -0.968588 25.4156 2.49478L20.6923 9.13065C19.4493 8.44379 18.0499 8.0843 16.6273 8.08643C11.9424 8.08643 8.14443 11.8567 8.14443 16.5076C8.14443 21.1585 11.9424 24.9288 16.6273 24.9288C21.3123 24.9288 25.1102 21.1585 25.1102 16.5076V12.8023H21.0384C20.7868 12.8041 20.5553 12.6657 20.4394 12.4439C20.3234 12.2222 20.3425 11.9546 20.4887 11.7513L21.8324 9.86498L26.5354 3.25605L28.6527 0.278325C28.7806 0.103722 28.9849 0.000415726 29.2024 0.000415726C29.4198 0.000415726 29.6242 0.103722 29.7521 0.278325L37.8753 11.7513C38.0216 11.9546 38.0406 12.2222 37.9247 12.4439C37.8087 12.6657 37.5773 12.8041 37.3256 12.8023H33.2538V16.5076Z" fill="url(#paint0_diamond)"/>
<defs>
<radialGradient id="paint0_diamond" cx="0" cy="0" r="1" gradientUnits="userSpaceOnUse" gradientTransform="translate(30.0783 3.65625) rotate(112.843) scale(36.3679 16.2664)">
<stop stop-color="#E39D4F"/>
<stop offset="1" stop-color="#D65561"/>
</radialGradient>
</defs>
</svg>
