<svg width="12" height="10" viewBox="0 0 12 10" fill="none" xmlns="http://www.w3.org/2000/svg">
<path d="M12 1.27925C11.5538 1.475 11.0782 1.60475 10.5825 1.66775C11.0925 1.36325 11.4818 0.88475 11.6648 0.308C11.1892 0.5915 10.6642 0.79175 10.1047 0.9035C9.65325 0.42275 9.00975 0.125 8.30775 0.125C6.94575 0.125 5.84925 1.2305 5.84925 2.58575C5.84925 2.78075 5.86575 2.96825 5.90625 3.14675C3.861 3.047 2.05125 2.06675 0.8355 0.5735C0.62325 0.94175 0.49875 1.36325 0.49875 1.817C0.49875 2.669 0.9375 3.42425 1.5915 3.8615C1.19625 3.854 0.8085 3.73925 0.48 3.5585C0.48 3.566 0.48 3.57575 0.48 3.5855C0.48 4.781 1.33275 5.774 2.451 6.00275C2.25075 6.0575 2.0325 6.08375 1.806 6.08375C1.6485 6.08375 1.4895 6.07475 1.34025 6.04175C1.659 7.016 2.5635 7.73225 3.639 7.7555C2.802 8.41025 1.73925 8.80475 0.58875 8.80475C0.387 8.80475 0.1935 8.79575 0 8.771C1.08975 9.47375 2.38125 9.875 3.774 9.875C8.301 9.875 10.776 6.125 10.776 2.8745C10.776 2.76575 10.7723 2.66075 10.767 2.5565C11.2552 2.21 11.6655 1.77725 12 1.27925Z" fill="white"/>
</svg>
