<svg width="15" height="15" viewBox="0 0 15 15" fill="none" xmlns="http://www.w3.org/2000/svg">
<g clip-path="url(#clip0)">
<path d="M7.39317 7.22557C8.38583 7.22557 9.2454 6.86954 9.94772 6.16711C10.65 5.46478 11.0061 4.60545 11.0061 3.61267C11.0061 2.62024 10.65 1.76079 9.94761 1.05824C9.24517 0.356026 8.38572 0 7.39317 0C6.4004 0 5.54106 0.356026 4.83874 1.05835C4.13641 1.76067 3.78027 2.62012 3.78027 3.61267C3.78027 4.60545 4.13641 5.4649 4.83885 6.16722C5.54129 6.86943 6.40074 7.22557 7.39317 7.22557Z" fill="#FFB83A"/>
<path d="M13.7147 11.5343C13.6945 11.242 13.6535 10.9232 13.5932 10.5865C13.5323 10.2473 13.4539 9.92661 13.3601 9.63353C13.2631 9.3306 13.1313 9.03146 12.9683 8.74478C12.7992 8.44724 12.6005 8.18814 12.3776 7.97494C12.1445 7.75189 11.8591 7.57256 11.529 7.44176C11.2001 7.31164 10.8356 7.24572 10.4457 7.24572C10.2926 7.24572 10.1445 7.30855 9.85851 7.49474C9.6825 7.60953 9.47662 7.74228 9.24683 7.88911C9.05033 8.01431 8.78414 8.13161 8.45535 8.23781C8.13457 8.34161 7.80888 8.39425 7.48741 8.39425C7.16595 8.39425 6.84036 8.34161 6.51924 8.23781C6.1908 8.13172 5.92461 8.01442 5.72834 7.88922C5.50072 7.74377 5.29472 7.61102 5.11608 7.49463C4.83044 7.30843 4.68224 7.24561 4.52911 7.24561C4.1391 7.24561 3.77472 7.31164 3.44593 7.44187C3.11611 7.57245 2.83058 7.75178 2.59724 7.97505C2.37442 8.18837 2.17564 8.44735 2.00672 8.74478C1.84387 9.03146 1.71204 9.33049 1.61499 9.63364C1.52126 9.92673 1.44287 10.2473 1.38199 10.5865C1.32168 10.9227 1.28071 11.2417 1.26045 11.5346C1.24054 11.8216 1.23047 12.1195 1.23047 12.4204C1.23047 13.2034 1.47938 13.8373 1.97021 14.3048C2.45499 14.7661 3.09643 15.0001 3.87646 15.0001H11.0991C11.8791 15.0001 12.5203 14.7662 13.0052 14.3048C13.4961 13.8376 13.745 13.2036 13.745 12.4203C13.7449 12.118 13.7347 11.8199 13.7147 11.5343Z" fill="#FFB83A"/>
</g>
<defs>
<clipPath id="clip0">
<rect width="15" height="15.0001" fill="white"/>
</clipPath>
</defs>
</svg>
